<svg width="101" height="107" viewBox="0 0 101 107" fill="none" xmlns="http://www.w3.org/2000/svg">
<path d="M66.392 103.659H17.663C14.1278 103.658 10.7374 102.255 8.23558 99.757C5.73377 97.2593 4.32487 93.8712 4.31799 90.336V41.618C4.31799 41.1779 4.14315 40.7558 3.83193 40.4446C3.52071 40.1334 3.09861 39.9585 2.65849 39.9585C2.21836 39.9585 1.79626 40.1334 1.48504 40.4446C1.17383 40.7558 0.998986 41.1779 0.998986 41.618V90.335C1.00667 94.7502 2.7655 98.982 5.88957 102.102C9.01365 105.222 13.2478 106.975 17.663 106.977H66.392C66.8321 106.977 67.2542 106.802 67.5654 106.491C67.8766 106.18 68.0515 105.758 68.0515 105.318C68.0515 104.877 67.8766 104.455 67.5654 104.144C67.2542 103.833 66.8321 103.658 66.392 103.658V103.659Z" fill="white"/>
<path d="M101 25.8C101.005 21.1614 99.7036 16.6151 97.246 12.681C97.1379 12.5081 96.9968 12.3582 96.8308 12.2399C96.6648 12.1215 96.4771 12.037 96.2784 11.9912C96.0798 11.9453 95.874 11.9391 95.6729 11.9728C95.4718 12.0065 95.2794 12.0794 95.1065 12.1875C94.9336 12.2956 94.7837 12.4367 94.6653 12.6027C94.547 12.7687 94.4624 12.9564 94.4166 13.1551C94.3708 13.3537 94.3646 13.5595 94.3982 13.7606C94.4319 13.9617 94.5049 14.1541 94.613 14.327C97.5097 18.9595 98.5567 24.5125 97.5458 29.8817C96.5348 35.2509 93.54 40.0429 89.1569 43.3047C84.7738 46.5664 79.3236 48.059 73.8903 47.4854C68.4569 46.9119 63.4384 44.3143 59.833 40.2092C56.2276 36.1042 54.2993 30.7925 54.4317 25.3306C54.5641 19.8686 56.7474 14.6566 60.5475 10.7311C64.3476 6.80555 69.4861 4.45415 74.9408 4.14452C80.3956 3.8349 85.7671 5.58974 89.987 9.06003C90.3052 9.32179 90.7145 9.44641 91.1246 9.40647C91.3277 9.38669 91.5249 9.3271 91.7049 9.23111C91.885 9.13513 92.0444 9.00461 92.174 8.84702C92.3036 8.68944 92.4009 8.50786 92.4604 8.31267C92.5198 8.11748 92.5402 7.91249 92.5204 7.70941C92.5006 7.50633 92.4411 7.30913 92.3451 7.12908C92.2491 6.94902 92.1186 6.78964 91.961 6.66002C89.1685 4.36172 85.908 2.70058 82.4071 1.79258C78.9063 0.88458 75.2494 0.751593 71.6919 1.40291C68.1343 2.05422 64.7618 3.47413 61.8097 5.56353C58.8576 7.65292 56.3971 10.3614 54.6 13.5H16.589C12.4578 13.5029 8.49653 15.1444 5.57406 18.0642C2.65158 20.984 1.00661 24.9439 0.999986 29.075V38.5C0.989306 38.7102 1.02148 38.9203 1.09455 39.1177C1.16763 39.315 1.28007 39.4955 1.42505 39.648C1.57003 39.8005 1.74452 39.922 1.93791 40.005C2.1313 40.088 2.33954 40.1308 2.54999 40.1308C2.76043 40.1308 2.96868 40.088 3.16206 40.005C3.35545 39.922 3.52994 39.8005 3.67492 39.648C3.8199 39.4955 3.93235 39.315 4.00542 39.1177C4.07849 38.9203 4.11067 38.7102 4.09999 38.5V29.075C4.10634 25.7669 5.42495 22.5964 7.7664 20.2595C10.1079 17.9225 13.2809 16.61 16.589 16.61H53.1C51.1855 21.4254 50.8261 26.7192 52.0721 31.7492C53.3181 36.7792 56.107 41.2931 60.0478 44.6581C63.9886 48.0231 68.8837 50.0704 74.0468 50.513C79.2098 50.9556 84.382 49.7712 88.838 47.126V91.408C88.8316 94.7155 87.5136 97.8853 85.173 100.222C82.8324 102.559 79.6604 103.872 76.353 103.873H69.466C69.2558 103.862 69.0457 103.895 68.8483 103.968C68.651 104.041 68.4705 104.153 68.318 104.298C68.1655 104.443 68.044 104.618 67.961 104.811C67.878 105.004 67.8352 105.213 67.8352 105.423C67.8352 105.633 67.878 105.842 67.961 106.035C68.044 106.228 68.1655 106.403 68.318 106.548C68.4705 106.693 68.651 106.805 68.8483 106.878C69.0457 106.952 69.2558 106.984 69.466 106.973H76.353C80.4833 106.97 84.4439 105.33 87.3664 102.411C90.289 99.4927 91.9348 95.5343 91.943 91.404V44.944C94.775 42.6219 97.0564 39.7002 98.6226 36.3897C100.189 33.0792 101.001 29.4623 101 25.8Z" fill="white"/>
<path d="M76.166 39.507C76.6059 39.5068 77.0277 39.3319 77.3388 39.0208C77.6498 38.7098 77.8247 38.2879 77.825 37.848V17.178C77.8248 16.8565 77.7312 16.5419 77.5556 16.2725C77.38 16.0031 77.13 15.7906 76.8359 15.6606C76.5418 15.5306 76.2162 15.4889 75.8988 15.5405C75.5814 15.592 75.2858 15.7347 75.048 15.951L71.492 19.189C71.1665 19.4853 70.9721 19.8987 70.9515 20.3382C70.9309 20.7778 71.0857 21.2076 71.382 21.533C71.6782 21.8584 72.0916 22.0529 72.5312 22.0735C72.9708 22.0941 73.4006 21.9393 73.726 21.643L74.506 20.933V37.848C74.506 38.288 74.6808 38.71 74.9919 39.0211C75.303 39.3322 75.725 39.507 76.165 39.507H76.166Z" fill="white"/>
<path d="M18.937 89.971C19.2031 90.0118 19.4751 89.9583 19.7061 89.8199C19.937 89.6816 20.1124 89.4669 20.202 89.213L21.602 84.324H30.026L31.445 89.224C31.619 89.7207 32.0667 89.969 32.788 89.969C33.3843 89.9688 33.9695 89.8078 34.482 89.503C34.7041 89.4086 34.8961 89.2551 35.0371 89.0593C35.1782 88.8634 35.2629 88.6326 35.282 88.392C35.2746 88.282 35.2517 88.1736 35.214 88.07L28.428 65.894C28.1367 65.1294 27.3123 64.747 25.955 64.747C24.6217 64.747 23.8097 65.1574 23.519 65.978L16.716 88.165C16.6887 88.2653 16.6768 88.3692 16.681 88.473C16.6953 88.6977 16.7695 88.9144 16.8957 89.1007C17.022 89.2871 17.1957 89.4363 17.399 89.533C17.8598 89.8232 18.3934 89.9768 18.938 89.976L18.937 89.971ZM25.795 69.705L29.231 81.45H22.431L25.795 69.705Z" fill="white"/>
<path d="M37.985 89.968C38.4352 89.9816 38.8803 89.869 39.27 89.643C39.4298 89.5599 39.5638 89.4346 39.6574 89.2807C39.751 89.1268 39.8007 88.9502 39.801 88.77V80.317H44.05C46.0783 80.4176 48.0724 79.7659 49.65 78.487C51.0553 77.267 51.758 75.3563 51.758 72.755V72.482C51.758 69.882 51.078 67.977 49.718 66.767C48.1879 65.4983 46.237 64.8508 44.252 64.953H37.569C37.2013 64.9384 36.8412 65.0602 36.558 65.295C36.435 65.3936 36.3357 65.5186 36.2675 65.6607C36.1993 65.8028 36.164 65.9584 36.164 66.116V88.771C36.1657 88.9531 36.2179 89.1311 36.3148 89.2853C36.4118 89.4394 36.5496 89.5636 36.713 89.644C37.0981 89.866 37.5366 89.9784 37.981 89.969L37.985 89.968ZM39.802 68.168H44.051C44.602 68.133 45.1543 68.2122 45.6733 68.4006C46.1923 68.5891 46.6668 68.8826 47.067 69.263C47.8428 70.1875 48.2242 71.3799 48.129 72.583V72.993C48.2216 74.201 47.8408 75.3978 47.067 76.33C46.6694 76.7152 46.1958 77.0131 45.6764 77.2046C45.1571 77.396 44.6034 77.4769 44.051 77.442H39.802V68.168Z" fill="white"/>
<path d="M69.031 72.48C69.031 69.88 68.3513 67.9754 66.992 66.766C65.4619 65.4974 63.511 64.85 61.526 64.952H54.843C54.4752 64.9368 54.115 65.0587 53.832 65.294C53.709 65.3926 53.6097 65.5176 53.5415 65.6597C53.4734 65.8018 53.4379 65.9574 53.438 66.115V88.77C53.4394 88.952 53.4915 89.13 53.5882 89.2842C53.685 89.4384 53.8227 89.5626 53.986 89.643C54.3778 89.8563 54.8169 89.9681 55.263 89.9681C55.7091 89.9681 56.1482 89.8563 56.54 89.643C56.6999 89.56 56.8339 89.4347 56.9275 89.2808C57.0212 89.1269 57.0708 88.9502 57.071 88.77V80.317H61.321C63.3493 80.4174 65.3433 79.7658 66.921 78.487C68.3256 77.267 69.028 75.3564 69.028 72.755L69.031 72.48ZM65.399 72.993C65.4913 74.2012 65.1101 75.3979 64.336 76.33C63.9387 76.7152 63.4652 77.0131 62.946 77.2046C62.4268 77.3961 61.8733 77.477 61.321 77.442H57.071V68.168H61.321C61.8718 68.1329 62.424 68.2121 62.9429 68.4005C63.4617 68.5889 63.936 68.8826 64.336 69.263C65.1119 70.1871 65.4937 71.3791 65.399 72.582V72.993Z" fill="white"/>
</svg>
