<svg width="100" height="100" viewBox="0 0 100 100" fill="none" xmlns="http://www.w3.org/2000/svg">
<path d="M13.045 37.536C13.199 37.69 13.3818 37.8121 13.5829 37.8955C13.7841 37.9788 13.9997 38.0217 14.2175 38.0217C14.4353 38.0217 14.6509 37.9788 14.8521 37.8955C15.0532 37.8121 15.236 37.69 15.39 37.536C15.544 37.382 15.6661 37.1992 15.7494 36.9981C15.8328 36.7969 15.8757 36.5813 15.8757 36.3635C15.8757 36.1457 15.8328 35.9301 15.7494 35.7289C15.6661 35.5278 15.544 35.345 15.39 35.191L11.364 31.165L15.388 27.136C15.699 26.825 15.8737 26.4033 15.8737 25.9635C15.8737 25.5237 15.699 25.102 15.388 24.791C15.077 24.48 14.6553 24.3053 14.2155 24.3053C13.7757 24.3053 13.354 24.48 13.043 24.791L7.843 29.991C7.68901 30.145 7.56685 30.3278 7.4835 30.5289C7.40016 30.7301 7.35726 30.9457 7.35726 31.1635C7.35726 31.3813 7.40016 31.5969 7.4835 31.7981C7.56685 31.9992 7.68901 32.182 7.843 32.336L13.045 37.536Z" fill="white"/>
<path d="M26.33 31.161L22.304 35.187C22.15 35.341 22.0279 35.5238 21.9446 35.7249C21.8612 35.9261 21.8183 36.1417 21.8183 36.3595C21.8183 36.5772 21.8612 36.7929 21.9446 36.994C22.0279 37.1952 22.15 37.378 22.304 37.532C22.458 37.686 22.6408 37.8081 22.8419 37.8914C23.0431 37.9748 23.2587 38.0177 23.4765 38.0177C23.6943 38.0177 23.9099 37.9748 24.111 37.8914C24.3122 37.8081 24.495 37.686 24.649 37.532L29.849 32.332C30.003 32.1781 30.1251 31.9954 30.2084 31.7943C30.2918 31.5932 30.3346 31.3777 30.3346 31.16C30.3346 30.9423 30.2918 30.7268 30.2084 30.5257C30.1251 30.3246 30.003 30.1419 29.849 29.988L24.649 24.788C24.4959 24.6303 24.3129 24.5046 24.1108 24.4182C23.9086 24.3318 23.6913 24.2865 23.4715 24.2849C23.2516 24.2833 23.0337 24.3254 22.8303 24.4088C22.6269 24.4922 22.4421 24.6152 22.2867 24.7707C22.1313 24.9262 22.0083 25.111 21.925 25.3144C21.8417 25.5179 21.7997 25.7359 21.8014 25.9557C21.8031 26.1755 21.8485 26.3928 21.9349 26.5949C22.0214 26.797 22.1472 26.9799 22.305 27.133L26.33 31.161Z" fill="white"/>
<path d="M17.959 37.903C18.3682 38.0637 18.8245 38.0552 19.2275 37.8795C19.6305 37.7038 19.9472 37.3752 20.108 36.966L24.191 26.566C24.2706 26.3634 24.3096 26.1472 24.3057 25.9296C24.3017 25.7119 24.255 25.4972 24.1681 25.2977C24.0812 25.0981 23.9558 24.9176 23.7991 24.7665C23.6425 24.6154 23.4576 24.4967 23.255 24.417C23.0524 24.3374 22.8362 24.2984 22.6185 24.3023C22.4009 24.3063 22.1862 24.353 21.9867 24.4399C21.7871 24.5268 21.6066 24.6522 21.4555 24.8089C21.3044 24.9655 21.1856 25.1504 21.106 25.353L17.022 35.753C16.9423 35.9557 16.9033 36.1721 16.9073 36.3899C16.9112 36.6076 16.9581 36.8225 17.0451 37.0221C17.1321 37.2218 17.2576 37.4023 17.4144 37.5535C17.5712 37.7046 17.7563 37.8234 17.959 37.903Z" fill="white"/>
<path d="M9.958 45.669H21.127C21.5667 45.669 21.9884 45.4943 22.2994 45.1834C22.6103 44.8724 22.785 44.4507 22.785 44.011C22.785 43.5713 22.6103 43.1496 22.2994 42.8386C21.9884 42.5277 21.5667 42.353 21.127 42.353H9.958C9.51827 42.353 9.09655 42.5277 8.78562 42.8386C8.47468 43.1496 8.3 43.5713 8.3 44.011C8.3 44.4507 8.47468 44.8724 8.78562 45.1834C9.09655 45.4943 9.51827 45.669 9.958 45.669Z" fill="white"/>
<path d="M43.088 42.352H23.457C23.0173 42.352 22.5956 42.5267 22.2846 42.8376C21.9737 43.1486 21.799 43.5703 21.799 44.01C21.799 44.4497 21.9737 44.8714 22.2846 45.1824C22.5956 45.4933 23.0173 45.668 23.457 45.668H43.088C43.5277 45.668 43.9494 45.4933 44.2604 45.1824C44.5713 44.8714 44.746 44.4497 44.746 44.01C44.746 43.5703 44.5713 43.1486 44.2604 42.8376C43.9494 42.5267 43.5277 42.352 43.088 42.352Z" fill="white"/>
<path d="M9.958 51.817H14.716C15.1557 51.817 15.5774 51.6423 15.8884 51.3314C16.1993 51.0204 16.374 50.5987 16.374 50.159C16.374 49.7193 16.1993 49.2975 15.8884 48.9866C15.5774 48.6757 15.1557 48.501 14.716 48.501H9.958C9.51827 48.501 9.09655 48.6757 8.78562 48.9866C8.47468 49.2975 8.3 49.7193 8.3 50.159C8.3 50.5987 8.47468 51.0204 8.78562 51.3314C9.09655 51.6423 9.51827 51.817 9.958 51.817Z" fill="white"/>
<path d="M35.932 48.501C35.4923 48.501 35.0705 48.6757 34.7596 48.9866C34.4487 49.2976 34.274 49.7193 34.274 50.159C34.274 50.5987 34.4487 51.0205 34.7596 51.3314C35.0705 51.6423 35.4923 51.817 35.932 51.817H38.832C39.2717 51.817 39.6934 51.6423 40.0044 51.3314C40.3153 51.0205 40.49 50.5987 40.49 50.159C40.49 49.7193 40.3153 49.2976 40.0044 48.9866C39.6934 48.6757 39.2717 48.501 38.832 48.501H35.932Z" fill="white"/>
<path d="M33.803 50.158C33.803 49.7183 33.6283 49.2966 33.3174 48.9856C33.0064 48.6747 32.5847 48.5 32.145 48.5H17.915C17.4753 48.5 17.0536 48.6747 16.7426 48.9856C16.4317 49.2966 16.257 49.7183 16.257 50.158C16.257 50.5977 16.4317 51.0195 16.7426 51.3304C17.0536 51.6413 17.4753 51.816 17.915 51.816H32.145C32.3627 51.816 32.5783 51.7731 32.7795 51.6898C32.9806 51.6065 33.1634 51.4844 33.3174 51.3304C33.4713 51.1764 33.5935 50.9936 33.6768 50.7925C33.7601 50.5913 33.803 50.3757 33.803 50.158Z" fill="white"/>
<path d="M41.273 50.158C41.273 50.5977 41.4477 51.0195 41.7586 51.3304C42.0696 51.6413 42.4913 51.816 42.931 51.816H48.357C48.7967 51.816 49.2185 51.6413 49.5294 51.3304C49.8403 51.0195 50.015 50.5977 50.015 50.158C50.015 49.7183 49.8403 49.2966 49.5294 48.9856C49.2185 48.6747 48.7967 48.5 48.357 48.5H42.931C42.4913 48.5 42.0696 48.6747 41.7586 48.9856C41.4477 49.2966 41.273 49.7183 41.273 50.158Z" fill="white"/>
<path d="M33.591 32.258H39.315C39.7547 32.258 40.1764 32.0833 40.4874 31.7724C40.7983 31.4614 40.973 31.0397 40.973 30.6C40.973 30.1603 40.7983 29.7385 40.4874 29.4276C40.1764 29.1167 39.7547 28.942 39.315 28.942H33.591C33.1513 28.942 32.7295 29.1167 32.4186 29.4276C32.1077 29.7385 31.933 30.1603 31.933 30.6C31.933 31.0397 32.1077 31.4614 32.4186 31.7724C32.7295 32.0833 33.1513 32.258 33.591 32.258Z" fill="white"/>
<path d="M41.761 32.258H76.685C77.1247 32.258 77.5464 32.0833 77.8574 31.7724C78.1683 31.4614 78.343 31.0397 78.343 30.6C78.343 30.1603 78.1683 29.7385 77.8574 29.4276C77.5464 29.1167 77.1247 28.942 76.685 28.942H41.761C41.3213 28.942 40.8996 29.1167 40.5886 29.4276C40.2777 29.7385 40.103 30.1603 40.103 30.6C40.103 31.0397 40.2777 31.4614 40.5886 31.7724C40.8996 32.0833 41.3213 32.258 41.761 32.258Z" fill="white"/>
<path d="M71.11 35.355H56.963C56.5233 35.355 56.1015 35.5297 55.7906 35.8406C55.4797 36.1516 55.305 36.5733 55.305 37.013C55.305 37.4527 55.4797 37.8745 55.7906 38.1854C56.1015 38.4963 56.5233 38.671 56.963 38.671H71.11C71.5497 38.671 71.9714 38.4963 72.2824 38.1854C72.5933 37.8745 72.768 37.4527 72.768 37.013C72.768 36.5733 72.5933 36.1516 72.2824 35.8406C71.9714 35.5297 71.5497 35.355 71.11 35.355Z" fill="white"/>
<path d="M53.729 35.355H48.866C48.4263 35.355 48.0046 35.5297 47.6936 35.8406C47.3827 36.1516 47.208 36.5733 47.208 37.013C47.208 37.4527 47.3827 37.8745 47.6936 38.1854C48.0046 38.4963 48.4263 38.671 48.866 38.671H53.729C54.1687 38.671 54.5905 38.4963 54.9014 38.1854C55.2123 37.8745 55.387 37.4527 55.387 37.013C55.387 36.5733 55.2123 36.1516 54.9014 35.8406C54.5905 35.5297 54.1687 35.355 53.729 35.355Z" fill="white"/>
<path d="M33.297 38.672H45.21C45.6497 38.672 46.0714 38.4973 46.3824 38.1864C46.6933 37.8755 46.868 37.4537 46.868 37.014C46.868 36.5743 46.6933 36.1525 46.3824 35.8416C46.0714 35.5307 45.6497 35.356 45.21 35.356H33.297C32.8573 35.356 32.4355 35.5307 32.1246 35.8416C31.8137 36.1525 31.639 36.5743 31.639 37.014C31.639 37.4537 31.8137 37.8755 32.1246 38.1864C32.4355 38.4973 32.8573 38.672 33.297 38.672Z" fill="white"/>
<path d="M31.833 54.597H20.661C20.4399 54.5916 20.22 54.6304 20.0141 54.7113C19.8083 54.7922 19.6207 54.9134 19.4624 55.0678C19.3041 55.2223 19.1783 55.4068 19.0924 55.6106C19.0065 55.8144 18.9623 56.0334 18.9623 56.2545C18.9623 56.4757 19.0065 56.6946 19.0924 56.8984C19.1783 57.1022 19.3041 57.2867 19.4624 57.4412C19.6207 57.5956 19.8083 57.7169 20.0141 57.7977C20.22 57.8786 20.4399 57.9174 20.661 57.912H31.829C32.0501 57.9174 32.27 57.8786 32.4759 57.7977C32.6817 57.7169 32.8693 57.5956 33.0276 57.4412C33.1859 57.2867 33.3117 57.1022 33.3976 56.8984C33.4835 56.6946 33.5277 56.4757 33.5277 56.2545C33.5277 56.0334 33.4835 55.8144 33.3976 55.6106C33.3117 55.4068 33.1859 55.2223 33.0276 55.0678C32.8693 54.9134 32.6817 54.7922 32.4759 54.7113C32.27 54.6304 32.0501 54.5916 31.829 54.597H31.833Z" fill="white"/>
<path d="M18.538 54.597H9.958C9.73691 54.5916 9.51696 54.6304 9.31112 54.7113C9.10527 54.7922 8.91768 54.9134 8.75938 55.0678C8.60109 55.2223 8.4753 55.4068 8.38942 55.6106C8.30353 55.8144 8.25928 56.0334 8.25928 56.2545C8.25928 56.4757 8.30353 56.6946 8.38942 56.8984C8.4753 57.1022 8.60109 57.2867 8.75938 57.4412C8.91768 57.5956 9.10527 57.7169 9.31112 57.7977C9.51696 57.8786 9.73691 57.9174 9.958 57.912H18.538C18.7591 57.9174 18.979 57.8786 19.1849 57.7977C19.3907 57.7169 19.5783 57.5956 19.7366 57.4412C19.8949 57.2867 20.0207 57.1022 20.1066 56.8984C20.1925 56.6946 20.2367 56.4757 20.2367 56.2545C20.2367 56.0334 20.1925 55.8144 20.1066 55.6106C20.0207 55.4068 19.8949 55.2223 19.7366 55.0678C19.5783 54.9134 19.3907 54.7922 19.1849 54.7113C18.979 54.6304 18.7591 54.5916 18.538 54.597Z" fill="white"/>
<path d="M49.63 54.597H35.041C34.8199 54.5916 34.6 54.6304 34.3941 54.7113C34.1883 54.7922 34.0007 54.9134 33.8424 55.0678C33.6841 55.2223 33.5583 55.4068 33.4724 55.6106C33.3865 55.8144 33.3423 56.0334 33.3423 56.2545C33.3423 56.4757 33.3865 56.6946 33.4724 56.8984C33.5583 57.1022 33.6841 57.2867 33.8424 57.4412C34.0007 57.5956 34.1883 57.7169 34.3941 57.7977C34.6 57.8786 34.8199 57.9174 35.041 57.912H49.63C49.8511 57.9174 50.071 57.8786 50.2769 57.7977C50.4827 57.7169 50.6703 57.5956 50.8286 57.4412C50.9869 57.2867 51.1127 57.1022 51.1986 56.8984C51.2845 56.6946 51.3287 56.4757 51.3287 56.2545C51.3287 56.0334 51.2845 55.8144 51.1986 55.6106C51.1127 55.4068 50.9869 55.2223 50.8286 55.0678C50.6703 54.9134 50.4827 54.7922 50.2769 54.7113C50.071 54.6304 49.8511 54.5916 49.63 54.597Z" fill="white"/>
<path d="M66.28 47.109H58.298C57.8583 47.109 57.4365 47.2837 57.1256 47.5946C56.8147 47.9055 56.64 48.3273 56.64 48.767C56.64 49.2067 56.8147 49.6284 57.1256 49.9394C57.4365 50.2503 57.8583 50.425 58.298 50.425H66.276C66.7157 50.425 67.1375 50.2503 67.4484 49.9394C67.7593 49.6284 67.934 49.2067 67.934 48.767C67.934 48.3273 67.7593 47.9055 67.4484 47.5946C67.1375 47.2837 66.7157 47.109 66.276 47.109H66.28Z" fill="white"/>
<path d="M75.325 50.425H86.591C87.0307 50.425 87.4525 50.2503 87.7634 49.9394C88.0743 49.6284 88.249 49.2067 88.249 48.767C88.249 48.3273 88.0743 47.9055 87.7634 47.5946C87.4525 47.2837 87.0307 47.109 86.591 47.109H75.325C74.8853 47.109 74.4635 47.2837 74.1526 47.5946C73.8417 47.9055 73.667 48.3273 73.667 48.767C73.667 49.2067 73.8417 49.6284 74.1526 49.9394C74.4635 50.2503 74.8853 50.425 75.325 50.425Z" fill="white"/>
<path d="M73.236 47.109H70.655C70.2153 47.109 69.7935 47.2837 69.4826 47.5946C69.1717 47.9055 68.997 48.3273 68.997 48.767C68.997 49.2067 69.1717 49.6284 69.4826 49.9394C69.7935 50.2503 70.2153 50.425 70.655 50.425H73.236C73.6757 50.425 74.0975 50.2503 74.4084 49.9394C74.7193 49.6284 74.894 49.2067 74.894 48.767C74.894 48.3273 74.7193 47.9055 74.4084 47.5946C74.0975 47.2837 73.6757 47.109 73.236 47.109Z" fill="white"/>
<path d="M58.302 66.31H66.28C66.5011 66.3155 66.721 66.2766 66.9269 66.1957C67.1327 66.1149 67.3203 65.9937 67.4786 65.8392C67.6369 65.6848 67.7627 65.5002 67.8486 65.2964C67.9345 65.0926 67.9787 64.8737 67.9787 64.6525C67.9787 64.4314 67.9345 64.2124 67.8486 64.0086C67.7627 63.8048 67.6369 63.6203 67.4786 63.4658C67.3203 63.3114 67.1327 63.1901 66.9269 63.1093C66.721 63.0284 66.5011 62.9896 66.28 62.995H58.302C58.0809 62.9896 57.861 63.0284 57.6551 63.1093C57.4493 63.1901 57.2617 63.3114 57.1034 63.4658C56.9451 63.6203 56.8193 63.8048 56.7334 64.0086C56.6475 64.2124 56.6033 64.4314 56.6033 64.6525C56.6033 64.8737 56.6475 65.0926 56.7334 65.2964C56.8193 65.5002 56.9451 65.6848 57.1034 65.8392C57.2617 65.9937 57.4493 66.1149 57.6551 66.1957C57.861 66.2766 58.0809 66.3155 58.302 66.31Z" fill="white"/>
<path d="M75.325 66.31H86.591C86.8121 66.3155 87.032 66.2766 87.2379 66.1957C87.4437 66.1149 87.6313 65.9937 87.7896 65.8392C87.9479 65.6848 88.0737 65.5002 88.1596 65.2964C88.2455 65.0926 88.2897 64.8737 88.2897 64.6525C88.2897 64.4314 88.2455 64.2124 88.1596 64.0086C88.0737 63.8048 87.9479 63.6203 87.7896 63.4658C87.6313 63.3114 87.4437 63.1901 87.2379 63.1093C87.032 63.0284 86.8121 62.9896 86.591 62.995H75.325C75.1039 62.9896 74.884 63.0284 74.6781 63.1093C74.4723 63.1901 74.2847 63.3114 74.1264 63.4658C73.9681 63.6203 73.8423 63.8048 73.7564 64.0086C73.6705 64.2124 73.6263 64.4314 73.6263 64.6525C73.6263 64.8737 73.6705 65.0926 73.7564 65.2964C73.8423 65.5002 73.9681 65.6848 74.1264 65.8392C74.2847 65.9937 74.4723 66.1149 74.6781 66.1957C74.884 66.2766 75.1039 66.3155 75.325 66.31Z" fill="white"/>
<path d="M70.655 66.31H73.238C73.4591 66.3155 73.679 66.2766 73.8849 66.1957C74.0907 66.1149 74.2783 65.9937 74.4366 65.8392C74.5949 65.6848 74.7207 65.5002 74.8066 65.2964C74.8925 65.0926 74.9367 64.8737 74.9367 64.6525C74.9367 64.4314 74.8925 64.2124 74.8066 64.0086C74.7207 63.8048 74.5949 63.6203 74.4366 63.4658C74.2783 63.3114 74.0907 63.1901 73.8849 63.1093C73.679 63.0284 73.4591 62.9896 73.238 62.995H70.657C70.4359 62.9896 70.216 63.0284 70.0101 63.1093C69.8043 63.1901 69.6167 63.3114 69.4584 63.4658C69.3001 63.6203 69.1743 63.8048 69.0884 64.0086C69.0025 64.2124 68.9583 64.4314 68.9583 64.6525C68.9583 64.8737 69.0025 65.0926 69.0884 65.2964C69.1743 65.5002 69.3001 65.6848 69.4584 65.8392C69.6167 65.9937 69.8043 66.1149 70.0101 66.1957C70.216 66.2766 70.4359 66.3155 70.657 66.31H70.655Z" fill="white"/>
<path d="M66.28 78.88H58.298C58.0769 78.8746 57.857 78.9135 57.6511 78.9943C57.4453 79.0752 57.2577 79.1964 57.0994 79.3508C56.9411 79.5053 56.8153 79.6898 56.7294 79.8936C56.6435 80.0974 56.5993 80.3164 56.5993 80.5375C56.5993 80.7587 56.6435 80.9776 56.7294 81.1814C56.8153 81.3852 56.9411 81.5697 57.0994 81.7242C57.2577 81.8786 57.4453 81.9999 57.6511 82.0807C57.857 82.1616 58.0769 82.2005 58.298 82.195H66.276C66.7085 82.1844 67.1198 82.0051 67.422 81.6954C67.7241 81.3857 67.8933 80.9702 67.8933 80.5375C67.8933 80.1048 67.7241 79.6893 67.422 79.3796C67.1198 79.0699 66.7085 78.8906 66.276 78.88H66.28Z" fill="white"/>
<path d="M86.591 78.88H75.325C74.8925 78.8906 74.4812 79.0699 74.179 79.3796C73.8769 79.6893 73.7077 80.1048 73.7077 80.5375C73.7077 80.9702 73.8769 81.3857 74.179 81.6954C74.4812 82.0051 74.8925 82.1844 75.325 82.195H86.591C86.8121 82.2005 87.032 82.1616 87.2379 82.0807C87.4437 81.9999 87.6313 81.8786 87.7896 81.7242C87.9479 81.5697 88.0737 81.3852 88.1596 81.1814C88.2455 80.9776 88.2897 80.7587 88.2897 80.5375C88.2897 80.3164 88.2455 80.0974 88.1596 79.8936C88.0737 79.6898 87.9479 79.5053 87.7896 79.3508C87.6313 79.1964 87.4437 79.0752 87.2379 78.9943C87.032 78.9135 86.8121 78.8746 86.591 78.88Z" fill="white"/>
<path d="M73.236 78.88H70.655C70.4339 78.8746 70.214 78.9135 70.0081 78.9943C69.8023 79.0752 69.6147 79.1964 69.4564 79.3508C69.2981 79.5053 69.1723 79.6898 69.0864 79.8936C69.0005 80.0974 68.9563 80.3164 68.9563 80.5375C68.9563 80.7587 69.0005 80.9776 69.0864 81.1814C69.1723 81.3852 69.2981 81.5697 69.4564 81.7242C69.6147 81.8786 69.8023 81.9999 70.0081 82.0807C70.214 82.1616 70.4339 82.2005 70.655 82.195H73.236C73.6685 82.1844 74.0798 82.0051 74.382 81.6954C74.6841 81.3857 74.8533 80.9702 74.8533 80.5375C74.8533 80.1048 74.6841 79.6893 74.382 79.3796C74.0798 79.0699 73.6685 78.8906 73.236 78.88Z" fill="white"/>
<path d="M93.559 0H6.441C4.73339 0.00211698 3.09633 0.6814 1.88886 1.88886C0.6814 3.09633 0.00211698 4.73339 0 6.441V77.256C0.00132302 78.9641 0.680256 80.602 1.8878 81.8101C3.09535 83.0182 4.73287 83.6979 6.441 83.7H11.949C12.3371 83.7 12.7094 83.5458 12.9839 83.2713C13.2583 82.9969 13.4125 82.6246 13.4125 82.2365C13.4125 81.8484 13.2583 81.4761 12.9839 81.2017C12.7094 80.9272 12.3371 80.773 11.949 80.773H6.441C5.50935 80.7719 4.61617 80.4014 3.9574 79.7426C3.29862 79.0838 2.92806 78.1907 2.927 77.259V71.7H56.247V74.222H55.087C54.3238 74.2225 53.5919 74.5259 53.0522 75.0655C52.5124 75.6051 52.2088 76.3368 52.208 77.1V80.77H20.847C20.4589 80.77 20.0866 80.9242 19.8121 81.1986C19.5377 81.4731 19.3835 81.8454 19.3835 82.2335C19.3835 82.6216 19.5377 82.9939 19.8121 83.2683C20.0866 83.5428 20.4589 83.697 20.847 83.697H34.919V88.946H30.5C29.0826 88.9476 27.7238 89.5113 26.7216 90.5136C25.7193 91.5158 25.1556 92.8746 25.154 94.292V97.454C25.1548 98.1006 25.412 98.7205 25.8692 99.1778C26.3265 99.635 26.9464 99.8922 27.593 99.893H72.3C72.9466 99.8922 73.5665 99.635 74.0238 99.1778C74.481 98.7205 74.7382 98.1006 74.739 97.454V94.291C74.7374 92.8736 74.1737 91.5148 73.1714 90.5126C72.1692 89.5103 70.8104 88.9466 69.393 88.945H64.97V87.1H92.026C92.7892 87.0981 93.5205 86.7935 94.0594 86.253C94.5982 85.7125 94.9005 84.9802 94.9 84.217V83.528C96.3163 83.1977 97.5795 82.3984 98.4844 81.2598C99.3893 80.1213 99.8829 78.7103 99.885 77.256L100 6.441C99.9984 4.73323 99.3193 3.09586 98.1117 1.88828C96.9041 0.680702 95.2668 0.00158863 93.559 0ZM55.135 68.219V61.2H91.977V68.215L55.135 68.219ZM59.173 58.276V55.2H87.938V58.279L59.173 58.276ZM87.938 71.146V74.226H59.174V71.146H87.938ZM37.845 83.7H52.208V84.221C52.2085 84.9842 52.5119 85.716 53.0515 86.2558C53.5911 86.7956 54.3228 87.0992 55.086 87.1H62.043V88.95H37.843L37.845 83.7ZM69.389 91.876C70.0304 91.8765 70.6454 92.1316 71.0989 92.5851C71.5524 93.0386 71.8075 93.6536 71.808 94.295V96.969H28.08V94.291C28.0811 93.6497 28.3364 93.035 28.7901 92.5817C29.2438 92.1284 29.8587 91.8735 30.5 91.873L69.389 91.876ZM91.977 84.176H55.135V77.153H91.977V84.176ZM96.962 77.264C96.959 77.9365 96.7631 78.5941 96.3977 79.1586C96.0322 79.7232 95.5124 80.171 94.9 80.449V77.1C94.8989 76.3369 94.5952 75.6053 94.0555 75.0658C93.5158 74.5262 92.7841 74.2228 92.021 74.222H90.861V71.7H96.961L96.962 77.264ZM96.962 68.785H94.856C94.886 68.619 94.904 61.163 94.904 61.163C94.9032 60.3997 94.5996 59.6679 94.0599 59.1281C93.5201 58.5884 92.7883 58.2848 92.025 58.284H90.865V55.2H92.025C92.788 55.1981 93.5191 54.8938 94.058 54.3538C94.5969 53.8137 94.8997 53.082 94.9 52.319V45.206C94.8992 44.4427 94.5956 43.7109 94.0559 43.1711C93.5161 42.6314 92.7843 42.3278 92.021 42.327H83.759C83.3775 42.337 83.0149 42.4955 82.7486 42.7689C82.4823 43.0423 82.3333 43.4088 82.3333 43.7905C82.3333 44.1722 82.4823 44.5387 82.7486 44.8121C83.0149 45.0855 83.3775 45.244 83.759 45.254H91.977V52.27H55.135V45.255H74.653C75.0345 45.245 75.3971 45.0865 75.6634 44.8131C75.9297 44.5397 76.0787 44.1732 76.0787 43.7915C76.0787 43.4098 75.9297 43.0433 75.6634 42.7699C75.3971 42.4965 75.0345 42.338 74.653 42.328H55.086C54.3227 42.3288 53.5909 42.6324 53.0511 43.1721C52.5114 43.7119 52.2078 44.4437 52.207 45.207V52.32C52.2075 53.0835 52.511 53.8156 53.0508 54.3555C53.5905 54.8955 54.3225 55.1992 55.086 55.2H56.246V58.279H55.086C54.3227 58.2798 53.5909 58.5834 53.0511 59.1231C52.5114 59.6629 52.2078 60.3947 52.207 61.158C52.207 61.158 52.225 68.614 52.255 68.78H2.927V19.908H96.962V68.785ZM96.962 16.985H3.034V6.441C3.03506 5.50918 3.40576 4.61585 4.06475 3.95704C4.72374 3.29824 5.61718 2.92779 6.549 2.927H93.449C94.3806 2.92806 95.2738 3.29862 95.9326 3.9574C96.5914 4.61617 96.9619 5.50935 96.963 6.441L96.962 16.985Z" fill="white"/>
<path d="M12.226 6.364C11.2636 6.36341 10.3227 6.64826 9.52223 7.18251C8.72177 7.71677 8.09774 8.47643 7.72909 9.3654C7.36044 10.2544 7.26373 11.2327 7.45119 12.1766C7.63865 13.1206 8.10186 13.9877 8.78222 14.6684C9.46258 15.349 10.3295 15.8126 11.2734 16.0004C12.2173 16.1883 13.1956 16.092 14.0848 15.7237C14.9739 15.3554 15.7338 14.7317 16.2684 13.9314C16.803 13.1312 17.0882 12.1904 17.088 11.228C17.0864 9.93882 16.5737 8.70287 15.6623 7.79109C14.7509 6.87932 13.5152 6.36612 12.226 6.364ZM12.226 12.778C11.9194 12.778 11.6198 12.6871 11.3649 12.5168C11.11 12.3465 10.9113 12.1044 10.794 11.8212C10.6767 11.5379 10.646 11.2263 10.7058 10.9256C10.7656 10.6249 10.9132 10.3488 11.13 10.132C11.3468 9.91521 11.6229 9.76759 11.9236 9.70778C12.2243 9.64798 12.5359 9.67867 12.8192 9.79599C13.1024 9.9133 13.3445 10.112 13.5148 10.3669C13.6851 10.6218 13.776 10.9214 13.776 11.228C13.7757 11.639 13.6123 12.0331 13.3217 12.3237C13.0311 12.6143 12.637 12.7777 12.226 12.778Z" fill="white"/>
<path d="M22.081 6.364C21.1188 6.364 20.1782 6.64933 19.3781 7.1839C18.5781 7.71847 17.9545 8.47828 17.5863 9.36724C17.2181 10.2562 17.1218 11.2344 17.3095 12.1781C17.4972 13.1218 17.9605 13.9887 18.6409 14.6691C19.3213 15.3495 20.1882 15.8128 21.1319 16.0005C22.0756 16.1882 23.0538 16.0919 23.9428 15.7237C24.8317 15.3555 25.5915 14.7319 26.1261 13.9318C26.6607 13.1318 26.946 12.1912 26.946 11.229C26.9444 9.93921 26.4313 8.7027 25.5193 7.79068C24.6073 6.87866 23.3708 6.36559 22.081 6.364ZM22.081 12.778C21.7744 12.778 21.4748 12.6871 21.2199 12.5168C20.965 12.3465 20.7663 12.1044 20.649 11.8212C20.5317 11.5379 20.501 11.2263 20.5608 10.9256C20.6206 10.6249 20.7682 10.3488 20.985 10.132C21.2018 9.91521 21.4779 9.76759 21.7786 9.70778C22.0793 9.64797 22.3909 9.67867 22.6742 9.79599C22.9574 9.9133 23.1995 10.112 23.3698 10.3669C23.5401 10.6218 23.631 10.9214 23.631 11.228C23.6307 11.639 23.4673 12.0331 23.1767 12.3237C22.8861 12.6143 22.492 12.7777 22.081 12.778Z" fill="white"/>
<path d="M32.879 6.364C31.9168 6.3642 30.9763 6.64969 30.1764 7.18439C29.3765 7.71908 28.7531 8.47896 28.385 9.36794C28.017 10.2569 27.9208 11.2351 28.1086 12.1787C28.2964 13.1224 28.7599 13.9891 29.4403 14.6694C30.1207 15.3497 30.9876 15.813 31.9313 16.0006C32.8749 16.1882 33.8531 16.0918 34.742 15.7236C35.6309 15.3553 36.3906 14.7318 36.9252 13.9317C37.4597 13.1317 37.745 12.1912 37.745 11.229C37.7437 9.93895 37.2306 8.70214 36.3183 7.79003C35.406 6.87793 34.1691 6.36506 32.879 6.364ZM32.879 12.778C32.5724 12.778 32.2728 12.6871 32.0179 12.5168C31.763 12.3465 31.5643 12.1044 31.447 11.8212C31.3297 11.5379 31.299 11.2263 31.3588 10.9256C31.4186 10.6249 31.5662 10.3488 31.783 10.132C31.9998 9.91521 32.276 9.76759 32.5766 9.70778C32.8773 9.64797 33.1889 9.67867 33.4722 9.79599C33.7554 9.9133 33.9975 10.112 34.1678 10.3669C34.3381 10.6218 34.429 10.9214 34.429 11.228C34.4285 11.6389 34.265 12.0329 33.9744 12.3234C33.6839 12.614 33.2899 12.7775 32.879 12.778Z" fill="white"/>
</svg>
