<svg width="31" height="31" viewBox="0 0 31 31" fill="none" xmlns="http://www.w3.org/2000/svg">
<path d="M23.977 4.68301C23.1536 2.95305 21.9984 1.40168 20.577 0.117008C20.4871 0.0402033 20.3709 0.00146125 20.2529 0.00901635C20.135 0.0165715 20.0246 0.0698281 19.9453 0.157467C19.866 0.245106 19.824 0.360218 19.8282 0.478336C19.8325 0.596454 19.8826 0.708267 19.968 0.790008C21.3015 1.99464 22.3854 3.44952 23.158 5.07201C23.2118 5.1771 23.3043 5.25711 23.4161 5.29507C23.5279 5.33304 23.6501 5.32598 23.7567 5.27538C23.8634 5.22478 23.9461 5.13463 23.9874 5.02405C24.0287 4.91346 24.0244 4.79113 23.977 4.68301Z" fill="white"/>
<path d="M21.417 5.35901C20.8362 4.25465 20.0873 3.24729 19.197 2.37301C19.1551 2.32839 19.1047 2.29269 19.0487 2.26805C18.9927 2.24341 18.9323 2.23034 18.8712 2.22962C18.81 2.2289 18.7493 2.24055 18.6928 2.26387C18.6362 2.28719 18.585 2.3217 18.5421 2.36533C18.4992 2.40895 18.4656 2.46079 18.4432 2.51774C18.4209 2.57468 18.4103 2.63555 18.412 2.6967C18.4138 2.75784 18.4279 2.818 18.4535 2.87356C18.4791 2.92912 18.5156 2.97893 18.561 3.02001C19.3843 3.82834 20.0769 4.75981 20.614 5.78101C20.6384 5.83909 20.6746 5.89146 20.7203 5.9348C20.766 5.97814 20.8202 6.01149 20.8795 6.03273C20.9388 6.05398 21.0019 6.06265 21.0647 6.0582C21.1275 6.05375 21.1887 6.03628 21.2445 6.00689C21.3002 5.9775 21.3491 5.93685 21.3883 5.8875C21.4274 5.83816 21.4559 5.78121 21.4718 5.72027C21.4878 5.65934 21.4909 5.59575 21.4809 5.53355C21.471 5.47136 21.4482 5.41192 21.414 5.35901H21.417Z" fill="white"/>
<path d="M4.04799 19.281C2.71655 18.0759 1.63474 16.621 0.863987 14.999C0.810212 14.8939 0.717619 14.8139 0.605842 14.7759C0.494066 14.738 0.371897 14.745 0.265241 14.7956C0.158585 14.8462 0.0758313 14.9364 0.0345267 15.047C-0.00677789 15.1576 -0.00338416 15.2799 0.0439876 15.388C0.867366 17.118 2.02257 18.6694 3.44399 19.954C3.48783 19.996 3.53964 20.0287 3.59636 20.0504C3.65308 20.072 3.71356 20.082 3.77422 20.0798C3.83487 20.0776 3.89448 20.0633 3.94951 20.0377C4.00454 20.0121 4.05388 19.9757 4.0946 19.9307C4.13533 19.8857 4.16662 19.833 4.18661 19.7757C4.20661 19.7184 4.21492 19.6576 4.21104 19.5971C4.20716 19.5365 4.19117 19.4773 4.16403 19.423C4.13688 19.3687 4.09912 19.3204 4.05299 19.281H4.04799Z" fill="white"/>
<path d="M5.45999 17.049C4.63668 16.2407 3.94407 15.3092 3.40699 14.288C3.38261 14.2299 3.34642 14.1776 3.30071 14.1342C3.255 14.0909 3.20078 14.0575 3.14148 14.0363C3.08219 14.015 3.01912 14.0064 2.95629 14.0108C2.89346 14.0153 2.83224 14.0327 2.77653 14.0621C2.72082 14.0915 2.67183 14.1322 2.63269 14.1815C2.59354 14.2309 2.56509 14.2878 2.54914 14.3487C2.5332 14.4097 2.5301 14.4733 2.54006 14.5355C2.55002 14.5977 2.57281 14.6571 2.60699 14.71C3.1878 15.8144 3.93674 16.8217 4.82699 17.696C4.91316 17.7791 5.02867 17.8248 5.14838 17.8232C5.26808 17.8215 5.38229 17.7727 5.46614 17.6872C5.55 17.6018 5.59672 17.4867 5.59613 17.367C5.59553 17.2472 5.54768 17.1326 5.46299 17.048L5.45999 17.049Z" fill="white"/>
<path d="M29.889 22.489L29.081 21.402C29.3958 20.3991 29.4979 19.3416 29.381 18.297C29.181 16.618 28.659 16.355 28.493 15.388C28.087 13.018 29.181 9.76601 29.404 9.13901L29.421 9.09001C29.899 7.58001 30.214 6.58201 28.693 5.85001C27.332 5.19501 25.9 5.77701 25.045 7.33101C24.2611 8.86109 23.7145 10.5015 23.424 12.196L17.824 4.66601C17.75 4.57567 17.6441 4.51728 17.5283 4.50296C17.4124 4.48865 17.2955 4.51951 17.2018 4.58914C17.1081 4.65877 17.0449 4.76181 17.0251 4.87687C17.0054 4.99193 17.0308 5.11016 17.096 5.20701L23.361 13.633C23.4158 13.7066 23.4916 13.7618 23.5784 13.7914C23.6652 13.821 23.7589 13.8237 23.8472 13.799C23.9356 13.7743 24.0143 13.7235 24.0732 13.6532C24.1321 13.5828 24.1682 13.4963 24.177 13.405C24.3772 11.4392 24.9411 9.52771 25.84 7.76801C26.073 7.34401 26.94 6.01301 28.3 6.66801C29.159 7.08101 29 7.32101 28.549 8.83401C28.217 9.76801 27.165 13.013 27.598 15.541C27.806 16.754 28.29 16.825 28.479 18.405C28.5543 19.0464 28.5313 19.6955 28.411 20.33C28.2652 20.912 27.9835 21.451 27.589 21.903C27.5121 21.9958 27.4752 22.1154 27.4864 22.2354C27.4977 22.3555 27.5562 22.4661 27.649 22.543C27.7418 22.6199 27.8614 22.6568 27.9814 22.6456C28.1014 22.6343 28.2121 22.5758 28.289 22.483C28.375 22.383 28.454 22.277 28.527 22.176L29.162 23.03C29.339 23.2689 29.4141 23.5681 29.3708 23.8623C29.3275 24.1564 29.1693 24.4213 28.931 24.599L27.977 25.309C27.9005 25.366 27.8439 25.4456 27.8153 25.5366C27.7866 25.6276 27.7874 25.7253 27.8174 25.8158C27.8473 25.9063 27.9051 25.9851 27.9824 26.041C28.0597 26.0968 28.1526 26.1269 28.248 26.127C28.504 26.127 28.548 25.983 29.473 25.327C29.9039 25.0054 30.1896 24.526 30.2676 23.994C30.3456 23.462 30.2094 22.9208 29.889 22.489Z" fill="white"/>
<path d="M26.909 26.673C26.8735 26.6251 26.8288 26.5847 26.7777 26.5541C26.7265 26.5235 26.6698 26.5033 26.6108 26.4947C26.5518 26.486 26.4917 26.4891 26.4339 26.5038C26.3761 26.5184 26.3218 26.5443 26.274 26.58L21.894 29.837C21.6526 30.016 21.3501 30.0921 21.0528 30.0484C20.7555 30.0047 20.4877 29.8449 20.308 29.604C19.7823 28.7444 18.9715 28.0968 18.017 27.774C16.2853 27.179 14.8245 25.9826 13.9 24.402C13.8261 24.3117 13.7202 24.2533 13.6043 24.239C13.4885 24.2246 13.3715 24.2555 13.2778 24.3251C13.1841 24.3948 13.1209 24.4978 13.1012 24.6129C13.0814 24.7279 13.1068 24.8462 13.172 24.943C14.21 26.6847 15.8371 27.9972 17.759 28.643C18.5219 28.9161 19.1658 29.4465 19.58 30.143C19.9033 30.5767 20.3854 30.8646 20.9207 30.9433C21.4559 31.022 22.0005 30.8853 22.435 30.563L26.815 27.306C26.9111 27.2343 26.9749 27.1275 26.9925 27.0089C27.0101 26.8903 26.9801 26.7696 26.909 26.673Z" fill="white"/>
<path d="M18.857 12.308L12.898 4.29301C12.7808 4.1353 12.6978 3.95486 12.6543 3.76324C12.6108 3.57161 12.6077 3.37302 12.6454 3.18016C12.683 2.9873 12.7605 2.80442 12.8729 2.64322C12.9853 2.48202 13.1301 2.34605 13.298 2.24401C13.6064 2.06537 13.9701 2.00739 14.3188 2.08127C14.6675 2.15515 14.9765 2.35564 15.186 2.64401L15.832 3.51201C15.9059 3.60235 16.0118 3.66074 16.1277 3.67506C16.2435 3.68938 16.3604 3.65851 16.4541 3.58889C16.5478 3.51926 16.6111 3.41621 16.6308 3.30115C16.6505 3.18609 16.6252 3.06786 16.56 2.97101L15.914 2.10301C15.6573 1.75037 15.3067 1.477 14.9021 1.31411C14.4974 1.15123 14.0552 1.10539 13.6258 1.18182C13.1964 1.25826 12.7971 1.45389 12.4735 1.74639C12.15 2.03888 11.9152 2.41646 11.796 2.83601C11.5048 2.50781 11.1266 2.26882 10.7052 2.14672C10.2838 2.02462 9.83643 2.02441 9.4149 2.14612C8.99338 2.26782 8.61496 2.50646 8.32349 2.83439C8.03201 3.16232 7.83941 3.56612 7.76799 3.99901C7.67775 4.55016 7.79114 5.11532 8.08699 5.58901C7.65222 5.58478 7.22496 5.7025 6.85371 5.92881C6.48245 6.15511 6.18206 6.48095 5.98662 6.86934C5.79117 7.25773 5.7085 7.69312 5.74799 8.12611C5.78747 8.55911 5.94753 8.97237 6.20999 9.31901L6.91999 10.274C6.48445 10.269 6.05626 10.3864 5.68417 10.6128C5.31207 10.8393 5.01103 11.1656 4.81532 11.5547C4.61961 11.9439 4.5371 12.3801 4.57717 12.8138C4.61724 13.2476 4.7783 13.6613 5.04199 14.008L5.87699 15.131L5.89099 15.15L5.88099 15.136L5.89399 15.153L11.91 23.24C11.9839 23.3304 12.0898 23.3887 12.2057 23.4031C12.3215 23.4174 12.4384 23.3865 12.5321 23.3169C12.6258 23.2473 12.6891 23.1442 12.7088 23.0291C12.7285 22.9141 12.7032 22.7959 12.638 22.699L5.76999 13.465C5.60039 13.2468 5.49838 12.9838 5.47656 12.7083C5.45475 12.4328 5.51407 12.157 5.64722 11.9148C5.78036 11.6726 5.98151 11.4748 6.22582 11.3456C6.47012 11.2165 6.7469 11.1617 7.02199 11.188C7.21751 11.2067 7.40688 11.2666 7.57766 11.3636C7.74844 11.4606 7.89679 11.5926 8.01299 11.751L12.141 17.303C12.2149 17.3934 12.3208 17.4517 12.4367 17.4661C12.5525 17.4804 12.6694 17.4495 12.7631 17.3799C12.8568 17.3103 12.9201 17.2072 12.9398 17.0921C12.9595 16.9771 12.9342 16.8589 12.869 16.762L6.93299 8.77801C6.7142 8.49064 6.61174 8.13137 6.64603 7.77182C6.68031 7.41228 6.84883 7.07885 7.11799 6.83801C7.26478 6.71078 7.43625 6.61522 7.62168 6.55733C7.80711 6.49945 8.00249 6.48047 8.1956 6.50159C8.3887 6.52271 8.57535 6.58348 8.74388 6.68008C8.91241 6.77669 9.05918 6.90705 9.17499 7.06301L14.775 14.597C14.8489 14.6874 14.9548 14.7457 15.0707 14.7601C15.1865 14.7744 15.3034 14.7435 15.3971 14.6739C15.4908 14.6043 15.5541 14.5012 15.5738 14.3861C15.5935 14.2711 15.5682 14.1529 15.503 14.056L8.92599 5.20801C8.81295 5.05665 8.73145 4.88414 8.68633 4.70069C8.64121 4.51725 8.63339 4.32661 8.66333 4.14009C8.69327 3.95357 8.76035 3.77496 8.86061 3.61485C8.96087 3.45474 9.09226 3.31639 9.24699 3.20801C9.55644 2.99998 9.9344 2.91982 10.3017 2.98432C10.6689 3.04882 10.9969 3.25298 11.217 3.55401L18.129 12.854C18.2029 12.9444 18.3088 13.0027 18.4247 13.0171C18.5405 13.0314 18.6574 13.0005 18.7511 12.9309C18.8448 12.8613 18.9081 12.7582 18.9278 12.6431C18.9475 12.5281 18.9222 12.4099 18.857 12.313V12.308Z" fill="white"/>
</svg>
