<svg width="100" height="91" viewBox="0 0 100 91" fill="none" xmlns="http://www.w3.org/2000/svg">
<path d="M98.4 0H1.6C1.17565 0 0.768687 0.168572 0.468629 0.46863C0.168571 0.768688 0 1.17565 0 1.6V88.83C0 89.2543 0.168571 89.6613 0.468629 89.9614C0.768687 90.2614 1.17565 90.43 1.6 90.43H98.4C98.8243 90.43 99.2313 90.2614 99.5314 89.9614C99.8314 89.6613 100 89.2543 100 88.83V71.809C99.9697 71.4065 99.7885 71.0304 99.4926 70.7559C99.1968 70.4814 98.8081 70.3289 98.4045 70.3289C98.0009 70.3289 97.6122 70.4814 97.3164 70.7559C97.0205 71.0304 96.8392 71.4065 96.809 71.809V87.235H3.191V15.957H96.809V65.426C96.8392 65.8285 97.0205 66.2046 97.3164 66.4791C97.6122 66.7536 98.0009 66.9061 98.4045 66.9061C98.8081 66.9061 99.1968 66.7536 99.4926 66.4791C99.7885 66.2046 99.9697 65.8285 100 65.426V1.6C100 1.17565 99.8314 0.768688 99.5314 0.46863C99.2313 0.168572 98.8243 0 98.4 0ZM3.191 3.191H62.234V12.765H3.191V3.191ZM65.425 12.765V3.191H96.809V12.765H65.425Z" fill="white"/>
<path d="M81.127 6.527C80.7769 6.527 80.4347 6.63081 80.1437 6.8253C79.8526 7.01979 79.6257 7.29623 79.4917 7.61965C79.3578 7.94308 79.3227 8.29896 79.391 8.64231C79.4593 8.98566 79.6279 9.30104 79.8754 9.54858C80.123 9.79612 80.4383 9.96469 80.7817 10.033C81.125 10.1013 81.4809 10.0662 81.8044 9.93227C82.1278 9.7983 82.4042 9.57144 82.5987 9.28036C82.7932 8.98929 82.897 8.64707 82.897 8.297C82.8965 7.82773 82.7098 7.37783 82.378 7.046C82.0462 6.71418 81.5963 6.52753 81.127 6.527Z" fill="white"/>
<path d="M72.415 6.527C72.0649 6.527 71.7227 6.63081 71.4317 6.8253C71.1406 7.01979 70.9137 7.29623 70.7797 7.61965C70.6458 7.94308 70.6107 8.29896 70.679 8.64231C70.7473 8.98566 70.9159 9.30104 71.1634 9.54858C71.411 9.79612 71.7263 9.96469 72.0697 10.033C72.413 10.1013 72.7689 10.0662 73.0924 9.93227C73.4158 9.7983 73.6922 9.57144 73.8867 9.28036C74.0812 8.98929 74.185 8.64707 74.185 8.297C74.1845 7.82773 73.9978 7.37783 73.666 7.046C73.3342 6.71418 72.8843 6.52753 72.415 6.527Z" fill="white"/>
<path d="M89.491 6.527C89.1409 6.527 88.7987 6.63081 88.5077 6.8253C88.2166 7.01979 87.9897 7.29623 87.8557 7.61965C87.7218 7.94308 87.6867 8.29896 87.755 8.64231C87.8233 8.98566 87.9919 9.30104 88.2394 9.54858C88.487 9.79612 88.8023 9.96469 89.1457 10.033C89.489 10.1013 89.8449 10.0662 90.1684 9.93227C90.4918 9.7983 90.7682 9.57144 90.9627 9.28036C91.1572 8.98929 91.261 8.64707 91.261 8.297C91.2605 7.82773 91.0738 7.37783 90.742 7.046C90.4102 6.71418 89.9603 6.52753 89.491 6.527Z" fill="white"/>
<path d="M32.044 43.682C32.3633 43.6422 32.6642 43.5104 32.9099 43.3027C33.1556 43.0949 33.3356 42.8202 33.428 42.512L37.245 29.77C37.3075 29.5613 37.3283 29.3423 37.3062 29.1255C37.284 28.9087 37.2194 28.6984 37.116 28.5066C37.0126 28.3148 36.8725 28.1453 36.7035 28.0077C36.5346 27.87 36.3402 27.767 36.1315 27.7045C35.9228 27.642 35.7038 27.6212 35.487 27.6433C35.2702 27.6655 35.0599 27.7301 34.8681 27.8335C34.6763 27.9369 34.5068 28.077 34.3692 28.246C34.2315 28.4149 34.1285 28.6093 34.066 28.818L31.328 37.957L28.689 33.557C28.5417 33.3109 28.3332 33.1072 28.0837 32.9658C27.8342 32.8244 27.5523 32.75 27.2655 32.75C26.9787 32.75 26.6968 32.8244 26.4473 32.9658C26.1979 33.1072 25.9893 33.3109 25.842 33.557L23.203 37.957L20.466 28.82C20.4035 28.6113 20.3005 28.4169 20.1628 28.248C20.0252 28.079 19.8557 27.9389 19.6639 27.8355C19.4721 27.7321 19.2618 27.6675 19.045 27.6453C18.8282 27.6232 18.6092 27.644 18.4005 27.7065C18.1918 27.769 17.9974 27.872 17.8285 28.0097C17.6595 28.1473 17.5194 28.3168 17.416 28.5086C17.3126 28.7004 17.248 28.9107 17.2258 29.1275C17.2037 29.3443 17.2245 29.5633 17.287 29.772L21.104 42.512C21.1962 42.8204 21.376 43.0953 21.6217 43.3032C21.8674 43.5112 22.1682 43.6431 22.4876 43.6831C22.8069 43.7231 23.131 43.6693 23.4203 43.5283C23.7096 43.3873 23.9517 43.1652 24.117 42.889L27.266 37.633L30.415 42.889C30.5805 43.1648 30.8226 43.3866 31.1118 43.5273C31.401 43.6681 31.7248 43.7218 32.044 43.682Z" fill="white"/>
<path d="M43.737 43.68C44.0563 43.7199 44.3803 43.6661 44.6695 43.5251C44.9587 43.3841 45.2007 43.1621 45.366 42.886L48.515 37.63L51.664 42.886C51.8293 43.1622 52.0714 43.3843 52.3607 43.5253C52.65 43.6663 52.9741 43.7201 53.2934 43.6801C53.6128 43.6401 53.9136 43.5082 54.1593 43.3002C54.405 43.0923 54.5848 42.8174 54.677 42.509L58.494 29.767C58.5565 29.5583 58.5773 29.3393 58.5552 29.1225C58.533 28.9057 58.4684 28.6954 58.365 28.5036C58.2616 28.3118 58.1215 28.1423 57.9525 28.0047C57.7836 27.867 57.5892 27.764 57.3805 27.7015C57.1718 27.639 56.9528 27.6182 56.736 27.6403C56.5192 27.6625 56.3089 27.7271 56.1171 27.8305C55.9253 27.9339 55.7558 28.074 55.6182 28.243C55.4805 28.4119 55.3775 28.6063 55.315 28.815L52.577 37.954L49.938 33.554C49.7907 33.3079 49.5822 33.1042 49.3327 32.9628C49.0832 32.8214 48.8013 32.747 48.5145 32.747C48.2277 32.747 47.9458 32.8214 47.6963 32.9628C47.4469 33.1042 47.2383 33.3079 47.091 33.554L44.452 37.954L41.715 28.817C41.6525 28.6083 41.5495 28.4139 41.4119 28.245C41.2742 28.076 41.1047 27.9359 40.9129 27.8325C40.7211 27.7291 40.5108 27.6645 40.294 27.6423C40.0772 27.6202 39.8582 27.641 39.6495 27.7035C39.4408 27.766 39.2464 27.869 39.0775 28.0067C38.9085 28.1443 38.7684 28.3138 38.665 28.5056C38.5616 28.6974 38.497 28.9077 38.4748 29.1245C38.4527 29.3413 38.4735 29.5603 38.536 29.769L42.353 42.51C42.4455 42.8182 42.6255 43.0928 42.8713 43.3005C43.117 43.5083 43.4177 43.6401 43.737 43.68Z" fill="white"/>
<path d="M78.631 27.701C78.2095 27.5748 77.755 27.6211 77.3676 27.8298C76.9802 28.0385 76.6915 28.3925 76.565 28.814L73.827 37.952L71.188 33.552C71.0407 33.3059 70.8322 33.1022 70.5827 32.9608C70.3332 32.8194 70.0513 32.745 69.7645 32.745C69.4777 32.745 69.1959 32.8194 68.9464 32.9608C68.6969 33.1022 68.4883 33.3059 68.341 33.552L65.702 37.952L62.965 28.815C62.8388 28.3934 62.5502 28.0393 62.1629 27.8305C61.7755 27.6216 61.3211 27.5753 60.8995 27.7015C60.478 27.8277 60.1238 28.1163 59.915 28.5036C59.7062 28.891 59.6598 29.3454 59.786 29.767L63.603 42.507C63.6952 42.8154 63.8751 43.0903 64.1207 43.2982C64.3664 43.5062 64.6672 43.6382 64.9866 43.6781C65.3059 43.7181 65.63 43.6643 65.9193 43.5233C66.2086 43.3823 66.4507 43.1602 66.616 42.884L69.765 37.628L72.914 42.884C73.0793 43.1602 73.3214 43.3823 73.6107 43.5233C73.9 43.6643 74.2241 43.7181 74.5435 43.6781C74.8628 43.6382 75.1637 43.5062 75.4093 43.2982C75.655 43.0903 75.8349 42.8154 75.927 42.507L79.744 29.765C79.8699 29.3437 79.8234 28.8897 79.6147 28.5027C79.406 28.1157 79.0522 27.8273 78.631 27.701Z" fill="white"/>
<path d="M29.459 52.113C29.459 51.673 29.2842 51.251 28.9731 50.9399C28.662 50.6288 28.24 50.454 27.8 50.454H18.95C18.51 50.454 18.088 50.6288 17.7769 50.9399C17.4658 51.251 17.291 51.673 17.291 52.113V60.963C17.291 61.403 17.4658 61.825 17.7769 62.1361C18.088 62.4472 18.51 62.622 18.95 62.622H27.8C28.24 62.622 28.662 62.4472 28.9731 62.1361C29.2842 61.825 29.459 61.403 29.459 60.963V52.113ZM26.141 59.307H20.61V53.776H26.141V59.307Z" fill="white"/>
<path d="M27.8 64.661H18.95C18.7321 64.661 18.5164 64.7039 18.3151 64.7873C18.1138 64.8707 17.931 64.9928 17.7769 65.1469C17.6229 65.3009 17.5007 65.4839 17.4173 65.6851C17.3339 65.8864 17.291 66.1021 17.291 66.32V75.17C17.291 75.3879 17.3339 75.6036 17.4173 75.8049C17.5007 76.0061 17.6229 76.189 17.7769 76.3431C17.931 76.4971 18.1138 76.6193 18.3151 76.7027C18.5164 76.7861 18.7321 76.829 18.95 76.829H27.8C28.24 76.829 28.662 76.6542 28.9731 76.3431C29.2842 76.032 29.459 75.61 29.459 75.17V66.32C29.459 65.88 29.2842 65.458 28.9731 65.1469C28.662 64.8358 28.24 64.661 27.8 64.661ZM26.141 73.514H20.61V67.983H26.141V73.514Z" fill="white"/>
<path d="M78.047 54.93H71.41C70.9699 54.93 70.5478 55.1048 70.2365 55.416C69.9253 55.7273 69.7505 56.1494 69.7505 56.5895C69.7505 57.0296 69.9253 57.4517 70.2365 57.7629C70.5478 58.0742 70.9699 58.249 71.41 58.249H78.047C78.4871 58.249 78.9092 58.0742 79.2204 57.7629C79.5317 57.4517 79.7065 57.0296 79.7065 56.5895C79.7065 56.1494 79.5317 55.7273 79.2204 55.416C78.9092 55.1048 78.4871 54.93 78.047 54.93Z" fill="white"/>
<path d="M65.897 54.93H33.256C32.8159 54.93 32.3938 55.1048 32.0826 55.416C31.7713 55.7273 31.5965 56.1494 31.5965 56.5895C31.5965 57.0296 31.7713 57.4517 32.0826 57.7629C32.3938 58.0742 32.8159 58.249 33.256 58.249H65.897C66.3371 58.249 66.7592 58.0742 67.0704 57.7629C67.3817 57.4517 67.5565 57.0296 67.5565 56.5895C67.5565 56.1494 67.3817 55.7273 67.0704 55.416C66.7592 55.1048 66.3371 54.93 65.897 54.93Z" fill="white"/>
<path d="M78.047 69.802H71.41C70.9699 69.802 70.5478 69.9768 70.2365 70.288C69.9253 70.5993 69.7505 71.0214 69.7505 71.4615C69.7505 71.9016 69.9253 72.3237 70.2365 72.6349C70.5478 72.9462 70.9699 73.121 71.41 73.121H78.047C78.4871 73.121 78.9092 72.9462 79.2204 72.6349C79.5317 72.3237 79.7065 71.9016 79.7065 71.4615C79.7065 71.0214 79.5317 70.5993 79.2204 70.288C78.9092 69.9768 78.4871 69.802 78.047 69.802Z" fill="white"/>
<path d="M65.897 69.802H33.256C32.8159 69.802 32.3938 69.9768 32.0826 70.288C31.7713 70.5993 31.5965 71.0214 31.5965 71.4615C31.5965 71.9016 31.7713 72.3237 32.0826 72.6349C32.3938 72.9462 32.8159 73.121 33.256 73.121H65.897C66.3371 73.121 66.7592 72.9462 67.0704 72.6349C67.3817 72.3237 67.5565 71.9016 67.5565 71.4615C67.5565 71.0214 67.3817 70.5993 67.0704 70.288C66.7592 69.9768 66.3371 69.802 65.897 69.802Z" fill="white"/>
</svg>
