<svg width="194" height="30" viewBox="0 0 194 30" fill="none" xmlns="http://www.w3.org/2000/svg">
<path d="M0 0.863998H3.616C3.98933 0.863998 4.29867 0.954665 4.544 1.136C4.8 1.30667 4.97067 1.54133 5.056 1.84L8.992 15.68C9.088 16.0213 9.17333 16.3947 9.248 16.8C9.33333 17.1947 9.41333 17.616 9.488 18.064C9.57333 17.616 9.664 17.1947 9.76 16.8C9.86667 16.3947 9.97867 16.0213 10.096 15.68L14.64 1.84C14.7253 1.59466 14.8907 1.37067 15.136 1.168C15.392 0.965332 15.7013 0.863998 16.064 0.863998H17.328C17.7013 0.863998 18.0107 0.954665 18.256 1.136C18.5013 1.30667 18.672 1.54133 18.768 1.84L23.28 15.68C23.5147 16.3627 23.7173 17.12 23.888 17.952C23.9627 17.536 24.0373 17.136 24.112 16.752C24.1973 16.368 24.2827 16.0107 24.368 15.68L28.304 1.84C28.3787 1.57333 28.544 1.344 28.8 1.152C29.056 0.959998 29.3653 0.863998 29.728 0.863998H33.104L25.92 24H22.032L16.976 8.192C16.912 7.98933 16.8427 7.77067 16.768 7.536C16.704 7.30133 16.64 7.05067 16.576 6.784C16.512 7.05067 16.4427 7.30133 16.368 7.536C16.304 7.77067 16.24 7.98933 16.176 8.192L11.072 24H7.184L0 0.863998Z" fill="#3D37F1"/>
<path d="M41.5478 7.328C42.5824 7.328 43.5318 7.49333 44.3958 7.824C45.2704 8.15467 46.0224 8.64 46.6518 9.28C47.2811 9.90933 47.7718 10.688 48.1238 11.616C48.4758 12.5333 48.6517 13.584 48.6517 14.768C48.6517 15.0667 48.6357 15.3173 48.6038 15.52C48.5824 15.712 48.5344 15.8667 48.4598 15.984C48.3958 16.0907 48.3051 16.1707 48.1878 16.224C48.0704 16.2667 47.9211 16.288 47.7397 16.288H37.5957C37.7131 17.9733 38.1664 19.2107 38.9557 20C39.7451 20.7893 40.7904 21.184 42.0918 21.184C42.7318 21.184 43.2811 21.1093 43.7397 20.96C44.2091 20.8107 44.6144 20.6453 44.9557 20.464C45.3078 20.2827 45.6118 20.1173 45.8678 19.968C46.1344 19.8187 46.3904 19.744 46.6357 19.744C46.7957 19.744 46.9344 19.776 47.0518 19.84C47.1691 19.904 47.2704 19.9947 47.3558 20.112L48.5078 21.552C48.0704 22.064 47.5798 22.496 47.0358 22.848C46.4918 23.1893 45.9211 23.4667 45.3237 23.68C44.7371 23.8827 44.1344 24.0267 43.5158 24.112C42.9078 24.1973 42.3158 24.24 41.7397 24.24C40.5984 24.24 39.5371 24.0533 38.5558 23.68C37.5744 23.296 36.7211 22.736 35.9958 22C35.2704 21.2533 34.6997 20.336 34.2837 19.248C33.8677 18.1493 33.6598 16.88 33.6598 15.44C33.6598 14.32 33.8411 13.2693 34.2038 12.288C34.5664 11.296 35.0837 10.4373 35.7557 9.712C36.4384 8.976 37.2651 8.39467 38.2357 7.968C39.2171 7.54133 40.3211 7.328 41.5478 7.328ZM41.6278 10.16C40.4757 10.16 39.5744 10.4853 38.9238 11.136C38.2731 11.7867 37.8571 12.7093 37.6758 13.904H45.0998C45.0998 13.392 45.0304 12.912 44.8918 12.464C44.7531 12.0053 44.5397 11.6053 44.2518 11.264C43.9638 10.9227 43.6011 10.656 43.1637 10.464C42.7264 10.2613 42.2144 10.16 41.6278 10.16Z" fill="#3D37F1"/>
<path d="M51.9055 24V0.223999H55.8575V9.6C56.5082 8.90667 57.2442 8.35733 58.0655 7.952C58.8868 7.536 59.8468 7.328 60.9455 7.328C61.8415 7.328 62.6575 7.51467 63.3935 7.888C64.1402 8.25067 64.7802 8.784 65.3135 9.488C65.8575 10.192 66.2735 11.0613 66.5615 12.096C66.8602 13.1307 67.0095 14.32 67.0095 15.664C67.0095 16.8907 66.8442 18.0267 66.5135 19.072C66.1828 20.1173 65.7082 21.024 65.0895 21.792C64.4815 22.56 63.7402 23.1627 62.8655 23.6C62.0015 24.0267 61.0308 24.24 59.9535 24.24C59.4522 24.24 58.9935 24.1867 58.5775 24.08C58.1615 23.984 57.7828 23.8453 57.4415 23.664C57.1002 23.4827 56.7802 23.264 56.4815 23.008C56.1935 22.7413 55.9162 22.448 55.6495 22.128L55.4735 23.232C55.4095 23.5093 55.2975 23.7067 55.1375 23.824C54.9882 23.9413 54.7802 24 54.5135 24H51.9055ZM59.5855 10.4C58.7642 10.4 58.0602 10.576 57.4735 10.928C56.8975 11.2693 56.3588 11.7547 55.8575 12.384V19.744C56.3055 20.2987 56.7908 20.688 57.3135 20.912C57.8468 21.1253 58.4228 21.232 59.0415 21.232C59.6388 21.232 60.1775 21.12 60.6575 20.896C61.1375 20.672 61.5428 20.3307 61.8735 19.872C62.2148 19.4133 62.4762 18.8373 62.6575 18.144C62.8388 17.44 62.9295 16.6133 62.9295 15.664C62.9295 14.704 62.8495 13.8933 62.6895 13.232C62.5402 12.56 62.3215 12.016 62.0335 11.6C61.7455 11.184 61.3935 10.88 60.9775 10.688C60.5722 10.496 60.1082 10.4 59.5855 10.4Z" fill="#3D37F1"/>
<path d="M85.815 22.832C86.903 22.832 87.8737 22.6453 88.727 22.272C89.591 21.888 90.3217 21.36 90.919 20.688C91.5163 20.016 91.9697 19.2267 92.279 18.32C92.599 17.4027 92.759 16.416 92.759 15.36V1.36H94.391V15.36C94.391 16.608 94.1937 17.776 93.799 18.864C93.4043 19.9413 92.8337 20.8853 92.087 21.696C91.351 22.496 90.4497 23.1253 89.383 23.584C88.327 24.0427 87.1377 24.272 85.815 24.272C84.4923 24.272 83.2977 24.0427 82.231 23.584C81.175 23.1253 80.2737 22.496 79.527 21.696C78.791 20.8853 78.2257 19.9413 77.831 18.864C77.4363 17.776 77.239 16.608 77.239 15.36V1.36H78.887V15.344C78.887 16.4 79.0417 17.3867 79.351 18.304C79.671 19.2107 80.1243 20 80.711 20.672C81.3083 21.344 82.0337 21.872 82.887 22.256C83.751 22.64 84.727 22.832 85.815 22.832Z" fill="#3D37F1"/>
<path d="M101.378 8.08V24H99.858V8.08H101.378ZM102.034 2.592C102.034 2.784 101.991 2.96533 101.906 3.136C101.831 3.296 101.73 3.44 101.602 3.568C101.474 3.696 101.325 3.79733 101.154 3.872C100.983 3.94667 100.802 3.984 100.61 3.984C100.418 3.984 100.237 3.94667 100.066 3.872C99.8953 3.79733 99.746 3.696 99.618 3.568C99.49 3.44 99.3887 3.296 99.314 3.136C99.2393 2.96533 99.202 2.784 99.202 2.592C99.202 2.4 99.2393 2.21867 99.314 2.048C99.3887 1.86667 99.49 1.712 99.618 1.584C99.746 1.456 99.8953 1.35467 100.066 1.28C100.237 1.20533 100.418 1.168 100.61 1.168C100.802 1.168 100.983 1.20533 101.154 1.28C101.325 1.35467 101.474 1.456 101.602 1.584C101.73 1.712 101.831 1.86667 101.906 2.048C101.991 2.21867 102.034 2.4 102.034 2.592Z" fill="#3D37F1"/>
<path d="M120.877 22.64L120.845 24H107.277V1.36H120.845V2.72H108.925V11.872H118.845V13.2H108.925V22.64H120.877Z" fill="#3D37F1"/>
<path d="M136.799 24H135.344C135.194 24 135.077 23.9573 134.992 23.872C134.906 23.776 134.837 23.6853 134.783 23.6L129.952 16.544C129.909 16.736 129.829 16.9227 129.712 17.104L125.104 23.6C125.029 23.696 124.949 23.7867 124.864 23.872C124.789 23.9573 124.688 24 124.56 24H123.184L128.975 15.856L123.408 8.08H124.864C125.013 8.08 125.125 8.112 125.2 8.176C125.274 8.24 125.338 8.31467 125.392 8.4L130.064 15.136C130.085 15.0507 130.117 14.96 130.16 14.864C130.213 14.768 130.266 14.672 130.32 14.576L134.688 8.416C134.751 8.32 134.821 8.24 134.896 8.176C134.97 8.112 135.066 8.08 135.184 8.08H136.576L131.023 15.76L136.799 24Z" fill="#3D37F1"/>
<path d="M141.656 20.528C141.965 20.9867 142.285 21.376 142.615 21.696C142.957 22.0053 143.314 22.2613 143.688 22.464C144.061 22.656 144.456 22.7947 144.872 22.88C145.298 22.9653 145.746 23.008 146.215 23.008C147.154 23.008 147.976 22.8373 148.68 22.496C149.383 22.1547 149.97 21.6747 150.439 21.056C150.919 20.4267 151.277 19.68 151.512 18.816C151.757 17.9413 151.88 16.9813 151.88 15.936C151.88 13.568 151.442 11.8293 150.568 10.72C149.693 9.6 148.439 9.04 146.807 9.04C145.751 9.04 144.797 9.312 143.943 9.856C143.09 10.4 142.327 11.1573 141.656 12.128V20.528ZM141.592 10.944C142.296 9.984 143.117 9.22133 144.055 8.656C145.005 8.09067 146.066 7.808 147.24 7.808C149.191 7.808 150.712 8.48533 151.799 9.84C152.898 11.1947 153.447 13.2267 153.447 15.936C153.447 17.0987 153.293 18.1867 152.984 19.2C152.685 20.2027 152.237 21.0773 151.639 21.824C151.053 22.56 150.327 23.1413 149.464 23.568C148.61 23.9947 147.623 24.208 146.503 24.208C145.426 24.208 144.493 24.0107 143.704 23.616C142.914 23.2213 142.232 22.64 141.656 21.872V29.632H140.12V8.08H140.967C141.234 8.08 141.389 8.21333 141.432 8.48L141.592 10.944Z" fill="#3D37F1"/>
<path d="M168.944 14.432C168.944 13.5787 168.821 12.816 168.576 12.144C168.341 11.4613 168.005 10.8853 167.568 10.416C167.13 9.94667 166.608 9.58933 166 9.344C165.402 9.088 164.741 8.96 164.016 8.96C163.194 8.96 162.458 9.088 161.808 9.344C161.157 9.6 160.592 9.968 160.112 10.448C159.642 10.928 159.264 11.504 158.976 12.176C158.688 12.848 158.496 13.6 158.4 14.432H168.944ZM158.32 15.408V15.712C158.32 16.9067 158.458 17.9573 158.736 18.864C159.013 19.7707 159.408 20.5333 159.92 21.152C160.432 21.76 161.05 22.2187 161.776 22.528C162.501 22.8373 163.312 22.992 164.208 22.992C165.008 22.992 165.701 22.9067 166.288 22.736C166.874 22.5547 167.365 22.3573 167.76 22.144C168.165 21.92 168.485 21.7227 168.72 21.552C168.954 21.3707 169.125 21.28 169.232 21.28C169.37 21.28 169.477 21.3333 169.552 21.44L169.968 21.952C169.712 22.272 169.37 22.5707 168.944 22.848C168.528 23.1253 168.058 23.3653 167.536 23.568C167.024 23.76 166.469 23.9147 165.872 24.032C165.285 24.1493 164.693 24.208 164.096 24.208C163.008 24.208 162.016 24.0213 161.12 23.648C160.224 23.264 159.456 22.7093 158.816 21.984C158.176 21.2587 157.68 20.3733 157.328 19.328C156.986 18.272 156.816 17.0667 156.816 15.712C156.816 14.5707 156.976 13.52 157.296 12.56C157.626 11.5893 158.096 10.7573 158.704 10.064C159.322 9.36 160.074 8.81067 160.96 8.416C161.856 8.02133 162.869 7.824 164 7.824C164.896 7.824 165.728 7.97867 166.496 8.288C167.264 8.59733 167.93 9.05067 168.496 9.648C169.061 10.2347 169.504 10.96 169.824 11.824C170.154 12.688 170.32 13.68 170.32 14.8C170.32 15.0347 170.288 15.1947 170.224 15.28C170.16 15.3653 170.053 15.408 169.904 15.408H158.32Z" fill="#3D37F1"/>
<path d="M175.919 11.92C176.165 11.2693 176.442 10.6933 176.751 10.192C177.071 9.68 177.434 9.248 177.839 8.896C178.255 8.544 178.714 8.27733 179.215 8.096C179.727 7.904 180.293 7.808 180.911 7.808C181.242 7.808 181.567 7.84 181.887 7.904C182.207 7.95733 182.49 8.05867 182.735 8.208L182.607 9.264C182.554 9.43467 182.453 9.52 182.303 9.52C182.175 9.52 181.978 9.48267 181.711 9.408C181.455 9.33333 181.114 9.296 180.687 9.296C180.069 9.296 179.519 9.392 179.039 9.584C178.57 9.76533 178.143 10.0427 177.759 10.416C177.386 10.7893 177.055 11.2533 176.767 11.808C176.49 12.352 176.234 12.9813 175.999 13.696V24H174.463V8.08H175.279C175.461 8.08 175.589 8.11733 175.663 8.192C175.738 8.26667 175.786 8.39467 175.807 8.576L175.919 11.92Z" fill="#3D37F1"/>
<path d="M190.128 24.256C189.05 24.256 188.208 23.9573 187.6 23.36C187.002 22.7627 186.704 21.84 186.704 20.592V9.712H184.416C184.298 9.712 184.202 9.68 184.128 9.616C184.053 9.552 184.016 9.46133 184.016 9.344V8.752L186.736 8.56L187.12 2.864C187.141 2.768 187.184 2.68267 187.248 2.608C187.312 2.53333 187.402 2.496 187.52 2.496H188.24V8.576H193.264V9.712H188.24V20.512C188.24 20.9493 188.293 21.328 188.4 21.648C188.517 21.9573 188.672 22.2133 188.864 22.416C189.066 22.6187 189.301 22.768 189.568 22.864C189.834 22.96 190.122 23.008 190.432 23.008C190.816 23.008 191.146 22.9547 191.424 22.848C191.701 22.7307 191.941 22.608 192.144 22.48C192.346 22.3413 192.512 22.2187 192.64 22.112C192.768 21.9947 192.869 21.936 192.944 21.936C193.029 21.936 193.114 21.9893 193.2 22.096L193.616 22.768C193.21 23.216 192.693 23.5787 192.064 23.856C191.445 24.1227 190.8 24.256 190.128 24.256Z" fill="#3D37F1"/>
</svg>
