<svg width="100" height="116" viewBox="0 0 100 116" fill="none" xmlns="http://www.w3.org/2000/svg">
<path d="M100.001 78.359C99.9988 76.4187 99.7412 74.4871 99.235 72.614C99.1759 72.396 99.0744 72.1918 98.9364 72.013C98.7984 71.8342 98.6265 71.6844 98.4306 71.572C98.2347 71.4597 98.0185 71.387 97.7945 71.3582C97.5705 71.3294 97.343 71.3449 97.125 71.404C96.907 71.4631 96.7028 71.5646 96.524 71.7026C96.3452 71.8406 96.1954 72.0125 96.083 72.2084C95.9706 72.4044 95.898 72.6205 95.8691 72.8445C95.8403 73.0685 95.8559 73.296 95.915 73.514C96.3417 75.0968 96.5593 76.7287 96.562 78.368C96.5741 81.8517 95.5811 85.265 93.702 88.1985C91.823 91.1321 89.1376 93.4613 85.968 94.907C85.5555 95.0979 85.2353 95.4442 85.0774 95.8704C84.9195 96.2966 84.9367 96.768 85.1252 97.1815C85.3138 97.5951 85.6583 97.9172 86.0836 98.0775C86.5089 98.2378 86.9804 98.2233 87.395 98.037C89.0625 97.2751 90.6258 96.3032 92.047 95.145C89.5324 99.4979 86.0712 103.23 81.9194 106.064C77.7676 108.898 73.0316 110.763 68.0618 111.519C63.092 112.276 58.0158 111.905 53.2087 110.434C48.4016 108.963 43.9868 106.431 40.291 103.023H56.991C59.2106 103.02 61.3385 102.137 62.908 100.568C64.4775 98.9985 65.3604 96.8706 65.363 94.651V94.151C65.356 92.3582 64.7804 90.6139 63.719 89.169C58.836 82.412 59.259 72.323 64.683 66.199C65.5495 65.2219 66.5161 64.3384 67.567 63.563C67.7666 63.4165 67.9323 63.2286 68.0526 63.0122C68.1729 62.7957 68.245 62.5558 68.264 62.3089C68.283 62.062 68.2484 61.814 68.1626 61.5817C68.0769 61.3494 67.9419 61.1383 67.767 60.963L54.969 48.171C53.7168 46.9007 53.0176 45.1867 53.024 43.403C53.0303 41.6192 53.7416 39.9103 55.0028 38.6488C56.264 37.3874 57.9728 36.6757 59.7565 36.669C61.5403 36.6623 63.2544 37.3611 64.525 38.613L91.089 65.176C91.8933 65.9811 92.6227 66.8577 93.268 67.795C93.396 67.9811 93.5595 68.1402 93.749 68.2631C93.9385 68.386 94.1503 68.4704 94.3725 68.5114C94.5946 68.5525 94.8226 68.5494 95.0435 68.5023C95.2644 68.4552 95.4739 68.3651 95.66 68.237C95.8461 68.109 96.0051 67.9455 96.128 67.756C96.251 67.5665 96.3354 67.3547 96.3764 67.1326C96.4174 66.9104 96.4143 66.6824 96.3673 66.4615C96.3202 66.2406 96.23 66.0311 96.102 65.845C95.3378 64.7353 94.4738 63.6977 93.521 62.745L76.706 45.93V8.24902C76.7036 6.06233 75.834 3.96585 74.288 2.41944C72.742 0.873022 70.6457 0.00293491 68.459 2.34375e-05H29.601C29.1448 2.34375e-05 28.7073 0.181237 28.3848 0.5038C28.0622 0.826362 27.881 1.26385 27.881 1.72002C27.881 2.1762 28.0622 2.61368 28.3848 2.93625C28.7073 3.25881 29.1448 3.44002 29.601 3.44002H68.459C69.7338 3.44188 70.9559 3.94933 71.8571 4.85107C72.7582 5.7528 73.2649 6.97518 73.266 8.25002V10.02H11.529V8.24902C11.5303 6.97374 12.0375 5.75107 12.9393 4.8493C13.841 3.94754 15.0637 3.44035 16.339 3.43902H22.722C23.1782 3.43902 23.6157 3.25781 23.9382 2.93525C24.2608 2.61268 24.442 2.1752 24.442 1.71902C24.442 1.26285 24.2608 0.825362 23.9382 0.5028C23.6157 0.180237 23.1782 -0.000976562 22.722 -0.000976562H16.339C14.1519 0.00167032 12.0551 0.871746 10.5086 2.41838C8.9622 3.96501 8.09238 6.06189 8.09 8.24902V33.891C6.17275 34.2317 4.40033 35.1354 2.99862 36.4871C1.5969 37.8388 0.629358 39.5772 0.219289 41.4808C-0.190779 43.3844 -0.0248036 45.367 0.696064 47.1759C1.41693 48.9849 2.66005 50.5382 4.267 51.638C2.66016 52.738 1.41717 54.2914 0.696387 56.1004C-0.0243956 57.9094 -0.190335 59.892 0.219712 61.7956C0.629758 63.6992 1.59723 65.4376 2.99885 66.7894C4.40047 68.1412 6.17279 69.0451 8.09 69.386V94.777C8.09264 96.9638 8.96265 99.0602 10.5091 100.606C12.0556 102.152 14.1522 103.022 16.339 103.024H35.468C35.928 103.539 36.398 104.037 36.868 104.51C42.0007 109.645 48.5314 113.155 55.6457 114.602C62.76 116.05 70.1431 115.372 76.8743 112.651C83.6055 109.931 89.387 105.289 93.4978 99.3052C97.6087 93.321 99.8669 86.2591 99.991 79C99.996 78.788 100 78.575 99.999 78.362L100.001 78.359ZM73.268 13.459V42.491L66.959 36.181C65.032 34.342 62.462 33.3297 59.7985 33.3606C57.1349 33.3915 54.5892 34.4632 52.7054 36.3464C50.8216 38.2297 49.7492 40.7752 49.7176 43.4387C49.6859 46.1023 50.6975 48.6725 52.536 50.6L63.98 62.047C61.3162 64.397 59.2879 67.3809 58.0829 70.7225C56.8779 74.0642 56.535 77.6557 57.086 81.165H11.529V13.459H73.268ZM3.44 43.548C3.44196 42.1588 3.89722 40.8082 4.73666 39.7013C5.57609 38.5944 6.75382 37.7917 8.091 37.415V49.68C6.75374 49.3035 5.57591 48.5008 4.73645 47.3939C3.897 46.287 3.44179 44.9373 3.44 43.548ZM3.44 59.729C3.44277 58.3406 3.89829 56.991 4.73746 55.8849C5.57663 54.7789 6.75366 53.9767 8.09 53.6V65.861C6.75282 65.4844 5.57509 64.6817 4.73566 63.5747C3.89622 62.4678 3.44096 61.1172 3.439 59.728L3.44 59.729ZM11.53 94.777V84.6H57.775C58.4339 86.962 59.5021 89.1901 60.931 91.183C61.5669 92.042 61.9142 93.0804 61.923 94.149V94.649C61.9217 95.9567 61.4016 97.2104 60.477 98.135C59.5523 99.0597 58.2986 99.5797 56.991 99.581H16.339C15.0641 99.58 13.8418 99.0733 12.94 98.1721C12.0383 97.2709 11.5308 96.0489 11.529 94.774L11.53 94.777Z" fill="white"/>
<path d="M47.513 90.225H37.241C36.793 90.225 36.3634 90.403 36.0467 90.7197C35.7299 91.0365 35.552 91.4661 35.552 91.914C35.552 92.362 35.7299 92.7916 36.0467 93.1083C36.3634 93.4251 36.793 93.603 37.241 93.603H47.513C47.961 93.603 48.3905 93.4251 48.7073 93.1083C49.024 92.7916 49.202 92.362 49.202 91.914C49.202 91.4661 49.024 91.0365 48.7073 90.7197C48.3905 90.403 47.961 90.225 47.513 90.225Z" fill="white"/>
</svg>
