<svg width="100" height="100" viewBox="0 0 100 100" fill="none" xmlns="http://www.w3.org/2000/svg">
<path d="M94.576 0H5.423C3.98513 0.00185274 2.60669 0.573935 1.59005 1.59076C0.573416 2.60758 0.00158762 3.98613 0 5.424V70.71C0.00158813 72.148 0.573554 73.5267 1.59041 74.5436C2.60726 75.5604 3.98595 76.1324 5.424 76.134H14.967C14.7453 76.4186 14.6352 76.7743 14.6575 77.1344C14.6798 77.4945 14.8329 77.8339 15.088 78.089L22.194 85.2C21.6603 86.2923 21.1928 87.4156 20.794 88.564H10.749C10.3574 88.564 9.98185 88.7193 9.7046 88.9958C9.42735 89.2723 9.27106 89.6474 9.27 90.039V98.521C9.27 98.9133 9.42582 99.2894 9.70319 99.5668C9.98056 99.8442 10.3567 100 10.749 100H39.94C40.3323 100 40.7084 99.8442 40.9858 99.5668C41.2632 99.2894 41.419 98.9133 41.419 98.521C41.419 96.3502 42.2813 94.2683 43.8163 92.7333C45.3513 91.1983 47.4332 90.336 49.604 90.336C51.7748 90.336 53.8567 91.1983 55.3917 92.7333C56.9267 94.2683 57.789 96.3502 57.789 98.521C57.789 98.7153 57.8273 98.9077 57.9017 99.0872C57.9761 99.2667 58.0851 99.4298 58.2225 99.5672C58.36 99.7045 58.5231 99.8134 58.7027 99.8877C58.8823 99.962 59.0747 100 59.269 100H88.461C88.8533 100 89.2294 99.8442 89.5068 99.5668C89.7842 99.2894 89.94 98.9133 89.94 98.521V90.039C89.94 89.6467 89.7842 89.2706 89.5068 88.9932C89.2294 88.7158 88.8533 88.56 88.461 88.56H78.411C78.0122 87.4116 77.5447 86.2883 77.011 85.196L84.119 78.088C84.3738 77.8327 84.5266 77.4932 84.5487 77.1332C84.5708 76.7732 84.4606 76.4175 84.239 76.133H94.575C96.013 76.1317 97.3918 75.56 98.4089 74.5433C99.4259 73.5266 99.9981 72.148 100 70.71V34.11C100 33.7177 99.8442 33.3416 99.5668 33.0642C99.2894 32.7868 98.9133 32.631 98.521 32.631C98.1287 32.631 97.7526 32.7868 97.4752 33.0642C97.1978 33.3416 97.042 33.7177 97.042 34.11V70.71C97.0412 71.3637 96.7811 71.9904 96.3188 72.4525C95.8565 72.9146 95.2297 73.1745 94.576 73.175H81.3L72.581 64.456V54.339C72.5809 54.1446 72.5425 53.9522 72.468 53.7727C72.3935 53.5932 72.2843 53.4301 72.1468 53.2928C72.0093 53.1554 71.8461 53.0465 71.6665 52.9723C71.4868 52.898 71.2944 52.8599 71.1 52.86H68.441V43.744L70.528 41.817C70.7336 41.6274 70.8813 41.3834 70.9539 41.1133C71.0264 40.8432 71.0209 40.5581 70.938 40.291L67.388 28.851C67.2943 28.5494 67.1067 28.2857 66.8525 28.0985C66.5982 27.9112 66.2908 27.8101 65.975 27.81H62.03C61.7142 27.8101 61.4068 27.9112 61.1525 28.0985C60.8983 28.2857 60.7107 28.5494 60.617 28.851L57.067 40.291C56.9841 40.5581 56.9786 40.8432 57.0511 41.1133C57.1237 41.3834 57.2714 41.6274 57.477 41.817L59.565 43.744V52.86H56.9C56.5077 52.86 56.1316 53.0158 55.8542 53.2932C55.5768 53.5706 55.421 53.9467 55.421 54.339V58.185H43.786V55.938L49.467 50.257C49.6043 50.1196 49.7132 49.9565 49.7875 49.7771C49.8618 49.5976 49.9001 49.4052 49.9 49.211V37.08C49.9 36.8843 49.8611 36.6904 49.7855 36.5099C49.71 36.3293 49.5993 36.1655 49.46 36.028L41.571 28.237C41.3635 28.0318 41.0999 27.8925 40.8134 27.8368C40.5269 27.7811 40.2304 27.8114 39.961 27.9238C39.6917 28.0363 39.4617 28.2259 39.2999 28.4689C39.1382 28.7118 39.0519 28.9971 39.052 29.289V42.477L35.206 44.9L31.36 42.477V41.634C31.36 41.2416 31.2041 40.8653 30.9267 40.5878C30.6492 40.3104 30.2729 40.1545 29.8805 40.1545C29.4881 40.1545 29.1118 40.3104 28.8343 40.5878C28.5569 40.8653 28.401 41.2416 28.401 41.634V43.293C28.4009 43.5431 28.4643 43.7891 28.5851 44.0081C28.706 44.227 28.8804 44.4118 29.092 44.545L34.418 47.9C34.6539 48.0487 34.9271 48.1276 35.206 48.1276C35.4849 48.1276 35.7581 48.0487 35.994 47.9L41.319 44.547C41.5306 44.4138 41.705 44.229 41.8259 44.0101C41.9467 43.7911 42.0101 43.5451 42.01 43.295V32.829L46.942 37.7V48.6L41.261 54.281C41.1236 54.4185 41.0146 54.5817 40.9403 54.7614C40.866 54.941 40.8278 55.1336 40.828 55.328V58.217C40.494 58.2854 40.1938 58.4671 39.9782 58.7313C39.7627 58.9955 39.645 59.326 39.645 59.667V69.717C38.4964 70.1142 37.3727 70.58 36.28 71.112L29.585 64.417V55.325C29.5852 55.1306 29.547 54.938 29.4727 54.7584C29.3984 54.5787 29.2894 54.4155 29.152 54.278L23.471 48.6V37.7L28.4 32.829V34.705C28.4 35.0974 28.5559 35.4737 28.8333 35.7512C29.1108 36.0286 29.4871 36.1845 29.8795 36.1845C30.2719 36.1845 30.6482 36.0286 30.9257 35.7512C31.2031 35.4737 31.359 35.0974 31.359 34.705V29.29C31.3588 28.9983 31.2724 28.7131 31.1106 28.4703C30.9489 28.2276 30.719 28.038 30.4498 27.9255C30.1806 27.813 29.8842 27.7825 29.5978 27.8379C29.3114 27.8934 29.0478 28.0322 28.84 28.237L20.95 36.028C20.8108 36.1656 20.7004 36.3294 20.625 36.51C20.5496 36.6906 20.5109 36.8843 20.511 37.08V49.211C20.511 49.4052 20.5492 49.5976 20.6235 49.7771C20.6978 49.9565 20.8067 50.1196 20.944 50.257L26.625 55.938V64.456L17.906 73.175H5.423C4.7694 73.1745 4.14273 72.9146 3.68057 72.4524C3.2184 71.9903 2.95853 71.3636 2.958 70.71V21.5H97.041V27.224C97.041 27.6164 97.1969 27.9927 97.4743 28.2702C97.7518 28.5476 98.1281 28.7035 98.5205 28.7035C98.9129 28.7035 99.2892 28.5476 99.5667 28.2702C99.8441 27.9927 100 27.6164 100 27.224V5.424C99.9984 3.98595 99.4264 2.60726 98.4096 1.59041C97.3927 0.573554 96.014 0.00158813 94.576 0ZM62.048 42.01L60.17 40.276L63.121 30.769H64.886L67.836 40.276L65.959 42.01C65.809 42.1486 65.6893 42.3167 65.6074 42.5037C65.5255 42.6908 65.4831 42.8928 65.483 43.097V52.86H62.525V43.1C62.5248 42.8957 62.4823 42.6937 62.4002 42.5066C62.3181 42.3195 62.1982 42.1515 62.048 42.013V42.01ZM69.625 64.418L62.93 71.11C61.8373 70.5766 60.7136 70.1091 59.565 69.71V59.665C59.565 59.324 59.4473 58.9935 59.2318 58.7293C59.0162 58.4651 58.716 58.2834 58.382 58.215V55.815H69.625V64.418ZM36.69 74.221C38.2433 73.3926 39.8728 72.7158 41.556 72.2C41.858 72.1069 42.1222 71.9196 42.31 71.6656C42.4979 71.4115 42.5995 71.104 42.6 70.788V61.144H56.6V70.788C56.6012 71.1052 56.7042 71.4137 56.894 71.6679C57.0837 71.9222 57.3502 72.1087 57.654 72.2C59.337 72.7148 60.9666 73.3906 62.52 74.218C62.7998 74.3671 63.1201 74.4224 63.4337 74.3758C63.7473 74.3292 64.0377 74.1831 64.262 73.959L71.083 67.138L80.983 77.038L74.162 83.859C73.9379 84.0833 73.7918 84.3737 73.7452 84.6873C73.6986 85.0009 73.7539 85.3212 73.903 85.601C74.7307 87.1543 75.4065 88.7839 75.921 90.467C76.0135 90.7699 76.2008 91.0351 76.4554 91.2236C76.7099 91.4121 77.0183 91.5139 77.335 91.514H86.979V97.037H71.942C71.7011 93.4402 70.5957 89.9546 68.7197 86.8764C66.8436 83.7982 64.2524 81.2182 61.166 79.3556C58.0796 77.493 54.5893 76.4027 50.9914 76.1775C47.3936 75.9523 43.7946 76.5988 40.5 78.062C40.1652 78.2356 39.9093 78.5304 39.7845 78.8864C39.6598 79.2423 39.6756 79.6324 39.8288 79.977C39.9819 80.3216 40.2609 80.5948 40.6087 80.7407C40.9564 80.8866 41.3468 80.8942 41.7 80.762C44.5448 79.4979 47.6515 78.9355 50.7588 79.1221C53.8662 79.3086 56.8833 80.2387 59.5564 81.834C62.2295 83.4293 64.4804 85.6432 66.1198 88.2895C67.7591 90.9359 68.739 93.9372 68.977 97.041H60.651C60.292 94.3659 58.9745 91.9119 56.943 90.1348C54.9115 88.3577 52.3041 87.3782 49.605 87.3782C46.9059 87.3782 44.2985 88.3577 42.267 90.1348C40.2355 91.9119 38.918 94.3659 38.559 97.041H30.232C30.581 92.19 32.7562 87.6517 36.319 84.341C36.5753 84.0667 36.7177 83.7053 36.7174 83.3299C36.7171 82.9545 36.574 82.5933 36.3173 82.3195C36.0605 82.0456 35.7092 81.8797 35.3346 81.8553C34.96 81.8309 34.5901 81.9498 34.3 82.188C30.1664 86.0745 27.6552 91.3803 27.27 97.041H12.228V91.518H21.872C22.1889 91.5179 22.4974 91.4162 22.7521 91.2277C23.0068 91.0393 23.1943 90.774 23.287 90.471C23.8015 88.7878 24.4773 87.1583 25.305 85.605C25.4541 85.3252 25.5094 85.0049 25.4628 84.6913C25.4162 84.3777 25.2701 84.0873 25.046 83.863L18.225 77.042L28.125 67.142L34.946 73.963C35.1703 74.1871 35.4607 74.3332 35.7743 74.3798C36.0879 74.4264 36.4082 74.3711 36.688 74.222L36.69 74.221ZM2.958 18.54V5.424C2.95879 4.77048 3.21875 4.14396 3.68086 3.68186C4.14296 3.21975 4.76948 2.95979 5.423 2.959H94.576C95.2295 2.95979 95.856 3.21975 96.3181 3.68186C96.7802 4.14396 97.0402 4.77048 97.041 5.424V18.54H2.958Z" fill="white"/>
</svg>
