<svg width="100" height="109" viewBox="0 0 100 109" fill="none" xmlns="http://www.w3.org/2000/svg">
<path d="M96.127 5.26503H83.212C82.7719 5.26503 82.3498 5.43987 82.0386 5.75108C81.7274 6.0623 81.5525 6.4844 81.5525 6.92453C81.5525 7.36465 81.7274 7.78676 82.0386 8.09797C82.3498 8.40919 82.7719 8.58403 83.212 8.58403H96.127C96.2736 8.58429 96.4141 8.64264 96.5178 8.74629C96.6214 8.84994 96.6798 8.99045 96.68 9.13703V74.151C96.68 74.5912 96.8549 75.0133 97.1661 75.3245C97.4773 75.6357 97.8994 75.8105 98.3395 75.8105C98.7796 75.8105 99.2018 75.6357 99.513 75.3245C99.8242 75.0133 99.999 74.5912 99.999 74.151V9.13803C99.9982 8.11135 99.59 7.12696 98.8641 6.40099C98.1381 5.67502 97.1537 5.26682 96.127 5.26603V5.26503Z" fill="white"/>
<path d="M98.416 76.087C97.9959 76.087 97.593 76.2539 97.296 76.551C96.9989 76.848 96.832 77.2509 96.832 77.671V99.035C96.832 99.8117 96.679 100.581 96.3818 101.298C96.0846 102.016 95.6489 102.668 95.0997 103.217C94.5505 103.766 93.8985 104.202 93.1809 104.499C92.4633 104.797 91.6942 104.95 90.9175 104.95C90.1408 104.95 89.3717 104.797 88.6541 104.499C87.9366 104.202 87.2845 103.766 86.7353 103.217C86.1861 102.668 85.7505 102.016 85.4532 101.298C85.156 100.581 85.003 99.8117 85.003 99.035V63.807C85.003 61.3983 84.0462 59.0883 82.343 57.3851C80.6398 55.6819 78.3297 54.725 75.921 54.725C73.5123 54.725 71.2023 55.6819 69.4991 57.3851C67.7959 59.0883 66.839 61.3983 66.839 63.807V74.519C66.8188 76.0743 66.1868 77.5591 65.0798 78.6518C63.9728 79.7444 62.48 80.3571 60.9245 80.3571C59.3691 80.3571 57.8763 79.7444 56.7693 78.6518C55.6623 77.5591 55.0303 76.0743 55.01 74.519V66.614L63.071 58.552C63.5928 58.0292 63.9705 57.3803 64.1673 56.6683C64.364 55.9564 64.3733 55.2056 64.194 54.489L83.622 35.06C84.4244 34.2558 84.8751 33.1661 84.8751 32.03C84.8751 30.894 84.4244 29.8043 83.622 29L62.814 8.19303H77.079C77.4991 8.19303 77.902 8.02614 78.1991 7.72908C78.4961 7.43203 78.663 7.02913 78.663 6.60903C78.663 6.18892 78.4961 5.78603 78.1991 5.48897C77.902 5.19191 77.4991 5.02503 77.079 5.02503H59.647L55.874 1.25303C55.0698 0.450628 53.9801 0 52.844 0C51.708 0 50.6183 0.450628 49.814 1.25303L30.388 20.679C30.0495 20.594 29.702 20.5504 29.353 20.549C28.7901 20.5475 28.2324 20.6576 27.7123 20.873C27.1922 21.0884 26.72 21.4049 26.323 21.804L17.923 30.204C17.1207 31.0081 16.6701 32.0976 16.6701 33.2335C16.6701 34.3694 17.1207 35.459 17.923 36.263L29.064 47.411C23.9095 52.3896 18.173 56.728 11.979 60.332C10.0391 61.4868 8.25289 62.8822 6.66303 64.485C3.855 67.1871 1.75435 70.5381 0.546025 74.243C-0.513975 77.884 -0.0179746 80.97 1.94603 82.931C2.63418 83.5856 3.44668 84.0954 4.3354 84.4304C5.22413 84.7653 6.17102 84.9186 7.12003 84.881C10.156 84.881 13.785 83.508 17.343 80.852C17.5142 80.7293 17.6591 80.5737 17.7694 80.3943C17.8797 80.2149 17.9532 80.0153 17.9854 79.8072C18.0176 79.5991 18.0081 79.3867 17.9572 79.1823C17.9064 78.9779 17.8153 78.7858 17.6893 78.617C17.5633 78.4483 17.4049 78.3064 17.2234 78.1995C17.0419 78.0927 16.841 78.0232 16.6323 77.995C16.4236 77.9668 16.2114 77.9805 16.008 78.0352C15.8047 78.09 15.6143 78.1848 15.448 78.314C10.92 81.693 6.18303 82.693 4.18203 80.693C3.09203 79.602 2.87503 77.575 3.58203 75.13C4.64066 71.9375 6.46596 69.0533 8.89803 66.73C10.298 65.3161 11.8715 64.0853 13.581 63.067C20.0065 59.3255 25.956 54.8208 31.3 49.651L35.221 53.571C30.0538 58.9152 25.5514 64.8643 21.812 71.289C21.2961 72.1604 20.7214 72.9957 20.092 73.789C19.8398 74.1194 19.7275 74.5356 19.7794 74.948C19.8313 75.3604 20.0432 75.7359 20.3694 75.9935C20.6956 76.251 21.11 76.3701 21.5231 76.3249C21.9363 76.2797 22.3152 76.074 22.578 75.752C23.2969 74.8469 23.9531 73.8937 24.542 72.899C28.1463 66.7036 32.485 60.9658 37.464 55.81L48.608 66.954C49.0049 67.3534 49.4771 67.6699 49.9972 67.8853C50.5173 68.1008 51.0751 68.2108 51.638 68.209C51.706 68.209 51.774 68.202 51.838 68.199V74.519C51.838 76.9277 52.7949 79.2378 54.4981 80.941C56.2013 82.6442 58.5113 83.601 60.92 83.601C63.3287 83.601 65.6388 82.6442 67.342 80.941C69.0452 79.2378 70.002 76.9277 70.002 74.519V63.807C70.0222 62.2517 70.6543 60.767 71.7613 59.6743C72.8683 58.5816 74.3611 57.9689 75.9165 57.9689C77.472 57.9689 78.9648 58.5816 80.0718 59.6743C81.1788 60.767 81.8108 62.2517 81.831 63.807V99.035C81.831 101.444 82.7879 103.754 84.4911 105.457C86.1943 107.16 88.5043 108.117 90.913 108.117C93.3217 108.117 95.6318 107.16 97.335 105.457C99.0382 103.754 99.995 101.444 99.995 99.035V77.671C99.995 77.4629 99.954 77.2569 99.8744 77.0646C99.7947 76.8724 99.6779 76.6977 99.5307 76.5506C99.3835 76.4035 99.2088 76.2869 99.0165 76.2073C98.8242 76.1278 98.6181 76.0869 98.41 76.087H98.416ZM52.054 3.49203C52.2636 3.2827 52.5478 3.16512 52.844 3.16512C53.1403 3.16512 53.4244 3.2827 53.634 3.49203L81.382 31.241C81.5913 31.4505 81.7088 31.7344 81.7088 32.0305C81.7088 32.3266 81.5913 32.6106 81.382 32.82L62.39 51.811L54.982 44.399L58.191 41.199C58.3406 41.0525 58.4595 40.8778 58.5411 40.685C58.6227 40.4921 58.6653 40.2851 58.6663 40.0757C58.6674 39.8664 58.6269 39.6589 58.5473 39.4652C58.4677 39.2716 58.3504 39.0957 58.2024 38.9477C58.0544 38.7996 57.8784 38.6824 57.6848 38.6028C57.4912 38.5231 57.2837 38.4827 57.0743 38.4837C56.865 38.4848 56.6579 38.5273 56.4651 38.6089C56.2723 38.6905 56.0976 38.8095 55.951 38.959L52.741 42.168L41.525 30.946L44.735 27.737C45.0271 27.439 45.1898 27.0377 45.1877 26.6203C45.1856 26.203 45.0189 25.8034 44.7238 25.5083C44.4287 25.2132 44.029 25.0465 43.6117 25.0444C43.1944 25.0423 42.7931 25.2049 42.495 25.497L39.285 28.706L37.579 26.999L50.209 14.369C50.5011 14.071 50.6638 13.6697 50.6617 13.2523C50.6596 12.835 50.4929 12.4354 50.1978 12.1403C49.9027 11.8452 49.503 11.6785 49.0857 11.6764C48.6684 11.6743 48.2671 11.8369 47.969 12.129L35.338 24.76L33.062 22.484L52.054 3.49203ZM50.848 64.715L20.159 34.027C19.9497 33.8174 19.8321 33.5333 19.8321 33.237C19.8321 32.9408 19.9497 32.6567 20.159 32.447L28.559 24.047C28.6627 23.9431 28.7858 23.8607 28.9214 23.8045C29.0569 23.7482 29.2023 23.7193 29.349 23.7193C29.4958 23.7193 29.6411 23.7482 29.7767 23.8045C29.9122 23.8607 30.0354 23.9431 30.139 24.047L60.831 54.732C61.0404 54.9417 61.1579 55.2258 61.1579 55.522C61.1579 55.8183 61.0404 56.1024 60.831 56.312L52.431 64.712C52.3274 64.8159 52.2042 64.8983 52.0687 64.9546C51.9331 65.0108 51.7878 65.0398 51.641 65.0398C51.4943 65.0398 51.3489 65.0108 51.2134 64.9546C51.0778 64.8983 50.9547 64.8159 50.851 64.712L50.848 64.715Z" fill="white"/>
<path d="M30.996 36.545C30.6849 36.2338 30.2629 36.0589 29.8229 36.0588C29.3828 36.0587 28.9608 36.2334 28.6495 36.5445C28.3383 36.8556 28.1634 37.2776 28.1633 37.7177C28.1632 38.1577 28.3379 38.5798 28.649 38.891L46.203 56.445C46.3571 56.5991 46.5401 56.7212 46.7414 56.8046C46.9427 56.8879 47.1585 56.9308 47.3764 56.9307C47.5943 56.9307 47.81 56.8877 48.0113 56.8043C48.2126 56.7209 48.3955 56.5986 48.5495 56.4445C48.7036 56.2904 48.8257 56.1075 48.9091 55.9062C48.9924 55.7048 49.0353 55.4891 49.0353 55.2712C49.0352 55.0533 48.9922 54.8375 48.9088 54.6362C48.8254 54.4349 48.7031 54.2521 48.549 54.098L30.996 36.545Z" fill="white"/>
<path d="M88.929 38.435H88.912C88.4704 38.4373 88.0477 38.6146 87.7366 38.9281C87.4255 39.2415 87.2514 39.6656 87.2525 40.1073C87.2537 40.5489 87.4299 40.9721 87.7426 41.284C88.0553 41.5959 88.4789 41.771 88.9205 41.771C89.3622 41.771 89.7858 41.5959 90.0985 41.284C90.4112 40.9721 90.5874 40.5489 90.5885 40.1073C90.5897 39.6656 90.4156 39.2415 90.1045 38.9281C89.7934 38.6146 89.3707 38.4373 88.929 38.435Z" fill="white"/>
<path d="M90.296 42.758C89.8559 42.7629 89.4358 42.9425 89.128 43.2572C88.8203 43.5719 88.6501 43.9959 88.655 44.436C88.66 44.8762 88.8395 45.2963 89.1542 45.6041C89.4689 45.9118 89.8929 46.0819 90.333 46.077H90.355C90.7952 46.0742 91.2162 45.8967 91.5254 45.5836C91.8347 45.2704 92.0068 44.8472 92.004 44.407C92.0013 43.9669 91.8237 43.5459 91.5105 43.2367C91.1974 42.9274 90.7742 42.7552 90.334 42.758H90.296Z" fill="white"/>
<path d="M80.86 47.63C80.4184 47.6323 79.9957 47.8096 79.6846 48.1231C79.3735 48.4365 79.1994 48.8606 79.2005 49.3022C79.2017 49.7439 79.3779 50.1671 79.6906 50.479C80.0033 50.7909 80.4269 50.966 80.8685 50.966C81.3102 50.966 81.7338 50.7909 82.0465 50.479C82.3592 50.1671 82.5354 49.7439 82.5365 49.3022C82.5377 48.8606 82.3636 48.4365 82.0525 48.1231C81.7414 47.8096 81.3187 47.6323 80.877 47.63H80.86Z" fill="white"/>
</svg>
